<svg xmlns="http://www.w3.org/2000/svg" xmlns:xlink="http://www.w3.org/1999/xlink" fill="none" version="1.1" width="52" height="52" viewBox="0 0 52 52"><defs><clipPath id="master_svg0_207_8159"><rect x="0" y="0" width="52" height="52" rx="0"/></clipPath></defs><g clip-path="url(#master_svg0_207_8159)"><g><path d="M9.917236328125,32.5L9.917236328125,19.5Q9.917236328125,19.4385914,9.911216328125,19.377479Q9.905196328125,19.316366,9.893216328125,19.256137Q9.881236328125,19.195909,9.863416328125,19.137144Q9.845586328125,19.07838,9.822086328125,19.021646Q9.798586328125,18.964911999999998,9.769636328125,18.910754Q9.740686328125,18.856597,9.706576328125,18.805537Q9.672456328125,18.754478,9.633499328125,18.707008Q9.594542328125,18.659539,9.551119328125,18.616117Q9.507697328125,18.572694,9.460228328125,18.533737Q9.412758328125,18.49478,9.361699328125,18.46066Q9.310639328125,18.42655,9.256482328125,18.3976Q9.202324328125,18.36865,9.145590328125,18.34515Q9.088856328125,18.321649999999998,9.030092328125,18.30382Q8.971327328125,18.286,8.911099328125,18.27402Q8.850870328125,18.26204,8.789757328125,18.25602Q8.728644928125,18.25,8.667236328125,18.25Q8.605827728125,18.25,8.544715328125,18.25602Q8.483602328125,18.26204,8.423373328125,18.27402Q8.363145328125,18.286,8.304380328125,18.30382Q8.245616328125,18.321649999999998,8.188882328125,18.34515Q8.132148328125,18.36865,8.077990328125,18.3976Q8.023833328125,18.42655,7.972773328125,18.46066Q7.921714328125,18.49478,7.874244328125,18.533737Q7.826775328125,18.572694,7.783353328125,18.616117Q7.739930328125,18.659539,7.700973328125,18.707008Q7.662016328125,18.754478,7.627896328125,18.805537Q7.593786328125,18.856597,7.564836328125,18.910754Q7.535886328125,18.964911999999998,7.512386328125,19.021646Q7.488886328125,19.07838,7.471056328125,19.137144Q7.453236328125,19.195909,7.441256328125,19.256137Q7.429276328125,19.316366,7.4232563281249995,19.377479Q7.417236328125,19.4385914,7.417236328125,19.5L7.417236328125,41.510400000000004Q7.417236328125,43.6844,8.937058328125,45.2145Q10.462216328125,46.75,12.637456328125,46.75L39.363636328125,46.75Q41.538936328125,46.75,43.064036328125,45.2145Q44.583936328125,43.6844,44.583936328125,41.510400000000004L44.583936328125,32.5L44.583936328125,19.5Q44.583936328125,19.4385914,44.577836328125,19.377479Q44.571836328125,19.316366,44.559836328125,19.256137Q44.547936328125,19.195909,44.530036328125,19.137144Q44.512236328125,19.07838,44.488736328125,19.021646Q44.465236328125,18.964911999999998,44.436336328125,18.910754Q44.407336328125,18.856597,44.373236328125,18.805537Q44.339136328125,18.754478,44.300136328125,18.707008Q44.261236328125,18.659539,44.217736328125,18.616117Q44.174336328125,18.572694,44.126936328125,18.533737Q44.079436328125,18.49478,44.028336328125,18.46066Q43.977336328125,18.42655,43.923136328125,18.3976Q43.868936328125,18.36865,43.812236328125,18.34515Q43.755536328125,18.321649999999998,43.696736328125,18.30382Q43.637936328125,18.286,43.577736328125,18.27402Q43.517536328125,18.26204,43.456436328125,18.25602Q43.395336328125,18.25,43.333936328125,18.25Q43.272536328125,18.25,43.211336328125,18.25602Q43.150236328125,18.26204,43.090036328125,18.27402Q43.029836328125,18.286,42.971036328125,18.30382Q42.912236328125,18.321649999999998,42.855536328125,18.34515Q42.798836328125,18.36865,42.744636328125,18.3976Q42.690536328125,18.42655,42.639436328125,18.46066Q42.588336328125,18.49478,42.540936328125,18.533737Q42.493436328125,18.572694,42.450036328125,18.616117Q42.406636328125,18.659539,42.367636328125,18.707008Q42.328636328125,18.754478,42.294536328125,18.805537Q42.260436328125,18.856597,42.231536328125,18.910754Q42.202536328125,18.964911999999998,42.179036328125,19.021646Q42.155536328125,19.07838,42.137736328125,19.137144Q42.119936328125,19.195909,42.107936328125,19.256137Q42.095936328125,19.316366,42.089936328125,19.377479Q42.083936328125,19.4385914,42.083936328125,19.5L42.083936328125,32.5L42.083936328125,41.510400000000004Q42.083936328125,42.653800000000004,41.290336328125,43.4527Q40.498436328124995,44.25,39.363636328125,44.25L12.637456328125,44.25Q11.502696328125,44.25,10.710776328125,43.4527Q9.917236328125,42.653800000000004,9.917236328125,41.510400000000004L9.917236328125,32.5Z" fill-rule="evenodd" fill="#606AFF" fill-opacity="1"/></g><g><path d="M4.321533203125,9.2857666015625L4.321533203125,18.5714766015625Q4.321533203125,18.6328866015625,4.3275532031249995,18.6940066015625Q4.333573203125,18.7551166015625,4.345553203125,18.8153466015625Q4.357533203125,18.8755666015625,4.375353203125,18.9343366015625Q4.393183203125,18.9930966015625,4.416683203125,19.0498366015625Q4.440183203125,19.1065666015625,4.469133203125,19.1607266015625Q4.498083203125,19.214886601562498,4.532193203125,19.2659466015625Q4.566313203125,19.3169666015625,4.605270203125,19.364466601562498Q4.644227203125,19.4119666015625,4.687650203125,19.455366601562503Q4.731072203125,19.4987666015625,4.778541203125,19.537766601562502Q4.826011203125,19.5766666015625,4.877070203125,19.6108666015625Q4.928130203125,19.6449666015625,4.982287203125,19.6738666015625Q5.036445203125,19.702866601562498,5.093179203125,19.7263666015625Q5.149913203125,19.749866601562502,5.208677203125,19.7676666015625Q5.267442203125,19.7854666015625,5.327670203125,19.797466601562498Q5.387899203125,19.809466601562498,5.449012203125,19.8154666015625Q5.510124603125,19.8214666015625,5.571533203125,19.8214666015625L46.428633203125,19.8214666015625Q46.490133203125,19.8214666015625,46.551233203125,19.8154666015625Q46.612333203125,19.809466601562498,46.672533203125,19.797466601562498Q46.732733203125,19.7854666015625,46.791533203125,19.7676666015625Q46.850333203125,19.749866601562502,46.907033203125,19.7263666015625Q46.963733203125,19.702866601562498,47.017933203125,19.6738666015625Q47.072033203125,19.6449666015625,47.123133203125,19.6108666015625Q47.174233203125,19.5766666015625,47.221633203125,19.537766601562502Q47.269133203125,19.4987666015625,47.312533203125,19.455366601562503Q47.356033203125,19.4119666015625,47.394933203125,19.364466601562498Q47.433933203125,19.3169666015625,47.468033203125,19.2659466015625Q47.502133203125,19.214886601562498,47.531033203125,19.1607266015625Q47.560033203125,19.1065666015625,47.583533203125,19.0498366015625Q47.607033203125,18.9930966015625,47.624833203125,18.9343366015625Q47.642633203125,18.8755666015625,47.654633203125,18.8153466015625Q47.666633203125,18.7551166015625,47.672633203125,18.6940066015625Q47.678633203125,18.6328866015625,47.678633203125,18.5714766015625L47.678633203125,9.2857666015625Q47.678633203125,9.2243580015625,47.672633203125,9.1632456015625Q47.666633203125,9.1021326015625,47.654633203125,9.0419036015625Q47.642633203125,8.9816756015625,47.624833203125,8.9229106015625Q47.607033203125,8.8641466015625,47.583533203125,8.8074126015625Q47.560033203125,8.7506786015625,47.531033203125,8.6965206015625Q47.502133203125,8.6423636015625,47.468033203125,8.5913036015625Q47.433933203125,8.5402446015625,47.394933203125,8.4927746015625Q47.356033203125,8.4453056015625,47.312533203125,8.4018836015625Q47.269133203125,8.3584606015625,47.221633203125,8.3195036015625Q47.174233203125,8.2805466015625,47.123133203125,8.2464266015625Q47.072033203125,8.2123166015625,47.017933203125,8.1833666015625Q46.963733203125,8.1544166015625,46.907033203125,8.1309166015625Q46.850333203125,8.1074166015625,46.791533203125,8.0895866015625Q46.732733203125,8.0717666015625,46.672533203125,8.0597866015625Q46.612333203125,8.0478066015625,46.551233203125,8.0417866015625Q46.490133203125,8.0357666015625,46.428633203125,8.0357666015625L5.571533203125,8.0357666015625Q5.510124603125,8.0357666015625,5.449012203125,8.0417866015625Q5.387899203125,8.0478066015625,5.327670203125,8.0597866015625Q5.267442203125,8.0717666015625,5.208677203125,8.0895866015625Q5.149913203125,8.1074166015625,5.093179203125,8.1309166015625Q5.036445203125,8.1544166015625,4.982287203125,8.1833666015625Q4.928130203125,8.2123166015625,4.877070203125,8.2464266015625Q4.826011203125,8.2805466015625,4.778541203125,8.3195036015625Q4.731072203125,8.3584606015625,4.687650203125,8.4018836015625Q4.644227203125,8.4453056015625,4.605270203125,8.4927746015625Q4.566313203125,8.5402446015625,4.532193203125,8.5913036015625Q4.498083203125,8.6423636015625,4.469133203125,8.6965206015625Q4.440183203125,8.7506786015625,4.416683203125,8.8074126015625Q4.393183203125,8.8641466015625,4.375353203125,8.9229106015625Q4.357533203125,8.9816756015625,4.345553203125,9.0419036015625Q4.333573203125,9.1021326015625,4.3275532031249995,9.1632456015625Q4.321533203125,9.2243580015625,4.321533203125,9.2857666015625ZM6.821533203125,17.3214766015625L45.178633203125,17.3214766015625L45.178633203125,10.5357666015625L6.821533203125,10.5357666015625L6.821533203125,17.3214766015625Z" fill-rule="evenodd" fill="#606AFF" fill-opacity="1"/></g><g><path d="M22.28564453125,31.2744140625L29.71421453125,31.2744140625Q29.82890453125,31.2744140625,29.941664531249998,31.2535440625Q30.048554531249998,31.2337640625,30.15041453125,31.1958340625Q30.252274531250002,31.157904062500002,30.34606453125,31.1029640625Q30.43985453125,31.0480240625,30.522744531249998,30.9777130625Q30.60564453125,30.9074060625,30.67515453125,30.8238460625Q30.74467453125,30.7402860625,30.798724531250002,30.6459810625Q30.85277453125,30.5516760625,30.88973453125,30.4494570625Q30.92669453125,30.3472380625,30.94545453125,30.2401740625Q30.96421453125,30.1331100625,30.96421453125,30.0244140625Q30.96421453125,29.9630054625,30.95819453125,29.9018930625Q30.95217453125,29.8407800625,30.94019453125,29.7805510625Q30.92821453125,29.7203230625,30.91039453125,29.6615580625Q30.892564531250002,29.6027940625,30.86906453125,29.5460600625Q30.845564531249998,29.489326062499998,30.81661453125,29.4351680625Q30.78766453125,29.3810110625,30.75355453125,29.3299510625Q30.719434531250002,29.2788920625,30.68047453125,29.2314220625Q30.64152453125,29.1839530625,30.59809453125,29.1405310625Q30.55467453125,29.0971080625,30.50720453125,29.0581510625Q30.45973453125,29.0191940625,30.40867453125,28.9850740625Q30.35761453125,28.9509640625,30.30346453125,28.9220140625Q30.24930453125,28.8930640625,30.19256453125,28.8695640625Q30.135834531249998,28.846064062499998,30.07707453125,28.8282340625Q30.01830453125,28.8104140625,29.95807453125,28.7984340625Q29.89785453125,28.7864540625,29.836734531250002,28.7804340625Q29.77562453125,28.7744140625,29.71421453125,28.7744140625L22.28564453125,28.7744140625Q22.22423593125,28.7744140625,22.16312353125,28.7804340625Q22.10201053125,28.7864540625,22.04178153125,28.7984340625Q21.98155353125,28.8104140625,21.92278853125,28.8282340625Q21.86402453125,28.846064062499998,21.80729053125,28.8695640625Q21.750556531249998,28.8930640625,21.69639853125,28.9220140625Q21.64224153125,28.9509640625,21.59118153125,28.9850740625Q21.54012253125,29.0191940625,21.49265253125,29.0581510625Q21.44518353125,29.0971080625,21.40176153125,29.1405310625Q21.35833853125,29.1839530625,21.31938153125,29.2314220625Q21.28042453125,29.2788920625,21.24630453125,29.3299510625Q21.21219453125,29.3810110625,21.18324453125,29.4351680625Q21.15429453125,29.489326062499998,21.13079453125,29.5460600625Q21.107294531249998,29.6027940625,21.08946453125,29.6615580625Q21.07164453125,29.7203230625,21.05966453125,29.7805510625Q21.04768453125,29.8407800625,21.04166453125,29.9018930625Q21.03564453125,29.9630054625,21.03564453125,30.0244140625Q21.03564453125,30.0858226625,21.04166453125,30.1469350625Q21.04768453125,30.2080480625,21.05966453125,30.2682770625Q21.07164453125,30.3285050625,21.08946453125,30.3872700625Q21.107294531249998,30.4460340625,21.13079453125,30.5027680625Q21.15429453125,30.559502062500002,21.18324453125,30.6136600625Q21.21219453125,30.6678170625,21.24630453125,30.7188770625Q21.28042453125,30.7699360625,21.31938153125,30.8174060625Q21.35833853125,30.8648750625,21.40176153125,30.9082970625Q21.44518353125,30.9517200625,21.49265253125,30.9906770625Q21.54012253125,31.0296340625,21.59118153125,31.0637540625Q21.64224153125,31.0978640625,21.69639853125,31.1268140625Q21.750556531249998,31.1557640625,21.80729053125,31.1792640625Q21.86402453125,31.202764062500002,21.92278853125,31.2205940625Q21.98155353125,31.2384140625,22.04178153125,31.2503940625Q22.10201053125,31.2623740625,22.16312353125,31.2683940625Q22.22423593125,31.2744140625,22.28564453125,31.2744140625Z" fill-rule="evenodd" fill="#EAB607" fill-opacity="1"/></g><g><path d="M22.28564453125,36.844970703125L29.71421453125,36.844970703125Q29.82890453125,36.844970703125,29.941664531249998,36.824100703125Q30.048554531249998,36.804320703125,30.15041453125,36.766390703125Q30.252274531250002,36.728460703125,30.34606453125,36.673520703125Q30.43985453125,36.618580703125,30.522744531249998,36.548269703125Q30.60564453125,36.477962703125,30.67515453125,36.394402703125Q30.74467453125,36.310842703125,30.798724531250002,36.216537703125Q30.85277453125,36.122232703125,30.88973453125,36.020013703125Q30.92669453125,35.917794703125,30.94545453125,35.810730703125Q30.96421453125,35.703666703125,30.96421453125,35.594970703125Q30.96421453125,35.533562103125,30.95819453125,35.472449703125Q30.95217453125,35.411336703125,30.94019453125,35.351107703125Q30.92821453125,35.290879703125,30.91039453125,35.232114703125Q30.892564531250002,35.173350703125,30.86906453125,35.116616703125Q30.845564531249998,35.059882703125,30.81661453125,35.005724703125Q30.78766453125,34.951567703125,30.75355453125,34.900507703125Q30.719434531250002,34.849448703125,30.68047453125,34.801978703125Q30.64152453125,34.754509703125,30.59809453125,34.711087703125Q30.55467453125,34.667664703125,30.50720453125,34.628707703125Q30.45973453125,34.589750703125,30.40867453125,34.555630703125Q30.35761453125,34.521520703125,30.30346453125,34.492570703125Q30.24930453125,34.463620703125,30.19256453125,34.440120703125Q30.135834531249998,34.416620703125,30.07707453125,34.398790703125Q30.01830453125,34.380970703125,29.95807453125,34.368990703125Q29.89785453125,34.357010703125,29.836734531250002,34.350990703125Q29.77562453125,34.344970703125,29.71421453125,34.344970703125L22.28564453125,34.344970703125Q22.22423593125,34.344970703125,22.16312353125,34.350990703125Q22.10201053125,34.357010703125,22.04178153125,34.368990703125Q21.98155353125,34.380970703125,21.92278853125,34.398790703125Q21.86402453125,34.416620703125,21.80729053125,34.440120703125Q21.750556531249998,34.463620703125,21.69639853125,34.492570703125Q21.64224153125,34.521520703125,21.59118153125,34.555630703125Q21.54012253125,34.589750703125,21.49265253125,34.628707703125Q21.44518353125,34.667664703125,21.40176153125,34.711087703125Q21.35833853125,34.754509703125,21.31938153125,34.801978703125Q21.28042453125,34.849448703125,21.24630453125,34.900507703125Q21.21219453125,34.951567703125,21.18324453125,35.005724703125Q21.15429453125,35.059882703125,21.13079453125,35.116616703125Q21.107294531249998,35.173350703125,21.08946453125,35.232114703125Q21.07164453125,35.290879703125,21.05966453125,35.351107703125Q21.04768453125,35.411336703125,21.04166453125,35.472449703125Q21.03564453125,35.533562103125,21.03564453125,35.594970703125Q21.03564453125,35.656379303125,21.04166453125,35.717491703125Q21.04768453125,35.778604703125,21.05966453125,35.838833703125Q21.07164453125,35.899061703125,21.08946453125,35.957826703125Q21.107294531249998,36.016590703125,21.13079453125,36.073324703125Q21.15429453125,36.130058703125,21.18324453125,36.184216703125Q21.21219453125,36.238373703125,21.24630453125,36.289433703125Q21.28042453125,36.340492703125,21.31938153125,36.387962703125Q21.35833853125,36.435431703125,21.40176153125,36.478853703125Q21.44518353125,36.522276703125,21.49265253125,36.561233703125Q21.54012253125,36.600190703125,21.59118153125,36.634310703125Q21.64224153125,36.668420703125,21.69639853125,36.697370703125Q21.750556531249998,36.726320703125,21.80729053125,36.749820703125Q21.86402453125,36.773320703125,21.92278853125,36.791150703125Q21.98155353125,36.808970703125,22.04178153125,36.820950703125Q22.10201053125,36.832930703125,22.16312353125,36.838950703125Q22.22423593125,36.844970703125,22.28564453125,36.844970703125Z" fill-rule="evenodd" fill="#EAB607" fill-opacity="1"/></g><g transform="matrix(0,1,-1,0,56.026123046875,4.022705078125)"><path d="M33.430278984375,28.7744140625L26.001708984375,28.7744140625Q25.940300384375,28.7744140625,25.879187984375,28.7804340625Q25.818074984375,28.7864540625,25.757845984375,28.7984340625Q25.697617984375,28.8104140625,25.638852984375,28.8282340625Q25.580088984375,28.846064062499998,25.523354984375,28.8695640625Q25.466620984374998,28.8930640625,25.412462984375,28.9220140625Q25.358305984375,28.9509640625,25.307245984375,28.9850740625Q25.256186984375,29.0191940625,25.208716984375,29.0581510625Q25.161247984375,29.0971080625,25.117825984375,29.1405310625Q25.074402984375,29.1839530625,25.035445984375,29.2314220625Q24.996488984375,29.2788920625,24.962368984375,29.3299510625Q24.928258984375,29.3810110625,24.899308984375,29.4351680625Q24.870358984375,29.489326062499998,24.846858984375,29.5460600625Q24.823358984374998,29.6027940625,24.805528984375,29.6615580625Q24.787708984375,29.7203230625,24.775728984375,29.7805510625Q24.763748984375,29.8407800625,24.757728984375,29.9018930625Q24.751708984375,29.9630054625,24.751708984375,30.0244140625Q24.751708984375,30.0858226625,24.757728984375,30.1469350625Q24.763748984375,30.2080480625,24.775728984375,30.2682770625Q24.787708984375,30.3285050625,24.805528984375,30.3872700625Q24.823358984374998,30.4460340625,24.846858984375,30.5027680625Q24.870358984375,30.559502062500002,24.899308984375,30.6136600625Q24.928258984375,30.6678170625,24.962368984375,30.7188770625Q24.996488984375,30.7699360625,25.035445984375,30.8174060625Q25.074402984375,30.8648750625,25.117825984375,30.9082970625Q25.161247984375,30.9517200625,25.208716984375,30.9906770625Q25.256186984375,31.0296340625,25.307245984375,31.0637540625Q25.358305984375,31.0978640625,25.412462984375,31.1268140625Q25.466620984374998,31.1557640625,25.523354984375,31.1792640625Q25.580088984375,31.202764062500002,25.638852984375,31.2205940625Q25.697617984375,31.2384140625,25.757845984375,31.2503940625Q25.818074984375,31.2623740625,25.879187984375,31.2683940625Q25.940300384375,31.2744140625,26.001708984375,31.2744140625L34.358848984375,31.2744140625Q34.420258984374996,31.2744140625,34.481368984375,31.2683940625Q34.542488984375,31.2623740625,34.602708984375,31.2503940625Q34.662938984375,31.2384140625,34.721708984375,31.2205940625Q34.780468984375,31.202764062500002,34.837198984375,31.1792640625Q34.893938984375,31.1557640625,34.948098984375,31.1268140625Q35.002258984375004,31.0978640625,35.053308984375,31.0637540625Q35.104368984375,31.0296340625,35.151838984375004,30.9906770625Q35.199308984375,30.9517200625,35.242728984375,30.9082970625Q35.286158984375,30.8648750625,35.325108984375,30.8174060625Q35.364068984375,30.7699360625,35.398188984375,30.7188770625Q35.432308984375,30.6678170625,35.461248984375004,30.6136600625Q35.490198984375,30.559502062500002,35.513698984375,30.5027680625Q35.537198984374996,30.4460340625,35.555028984375,30.3872700625Q35.572848984375,30.3285050625,35.584828984375,30.2682770625Q35.596808984375,30.2080480625,35.602828984375,30.1469350625Q35.608848984375,30.0858226625,35.608848984375,30.0244140625Q35.608848984375,29.9630054625,35.602828984375,29.9018930625Q35.596808984375,29.8407800625,35.584828984375,29.7805510625Q35.572848984375,29.7203230625,35.555028984375,29.6615580625Q35.537198984374996,29.6027940625,35.513698984375,29.5460600625Q35.490198984375,29.489326062499998,35.461248984375004,29.4351680625Q35.432298984375,29.3810110625,35.398188984375,29.3299510625Q35.364068984375,29.2788920625,35.325108984375,29.2314220625Q35.286158984375,29.1839530625,35.242728984375,29.1405310625Q35.199308984375,29.0971080625,35.151838984375004,29.0581510625Q35.104368984375,29.0191940625,35.053308984375,28.9850740625Q35.002258984375004,28.9509640625,34.948098984375,28.9220140625Q34.893938984375,28.8930640625,34.837198984375,28.8695640625Q34.780468984375,28.846064062499998,34.721708984375,28.8282340625Q34.662938984375,28.8104140625,34.602708984375,28.7984340625Q34.542488984375,28.7864540625,34.481368984375,28.7804340625Q34.420258984374996,28.7744140625,34.358848984375,28.7744140625L33.430278984375,28.7744140625Z" fill-rule="evenodd" fill="#EAB607" fill-opacity="1"/></g><g transform="matrix(0.7071067690849304,0.7071067690849304,-0.7071067690849304,0.7071067690849304,25.239636108053674,-8.315463112412544)"><path d="M23.053218703125,25.1234641015625L23.053103703125,25.1234241015625Q22.860558703125,25.0592041015625,22.657584166125,25.0592041015625Q22.623194203125,25.0592041015625,22.588856303125,25.0610941015625Q22.495555703125,25.0662341015625,22.404055703125,25.0851841015625Q22.312555703125,25.1041341015625,22.224890703125,25.136484101562502Q22.137225703125,25.1688241015625,22.055343703125,25.2138441015625Q21.973461703125,25.2588641015625,21.899183703125,25.3155601015625Q21.824904703125,25.3722531015625,21.759880703125,25.4393601015625Q21.694856703125,25.5064661015625,21.640530703125002,25.5824951015625Q21.586210703125,25.6585231015625,21.543790703125,25.7417831015625Q21.501370703125,25.8250431015625,21.471810703125,25.9136841015625Q21.407580703125,26.1062301015625,21.407580703125,26.3092041015625Q21.407580703125,26.3435938015625,21.409470703125,26.3779319015625Q21.414610703125,26.4712321015625,21.433560703125,26.5627321015625Q21.452520703125,26.6542321015625,21.484860703125,26.7418971015625Q21.517210703125,26.8295631015625,21.562230703125,26.9114441015625Q21.607250703125,26.9933261015625,21.663939703125,27.0676051015625Q21.720633703125,27.1418831015625,21.787739703125,27.2069071015625Q21.854846703125,27.2719311015625,21.930874703125,27.3262541015625Q22.006902703125,27.3805841015625,22.090162703125,27.4229941015625Q22.173422703125,27.4654141015625,22.262063703125,27.4949841015625L26.201350703125,28.8089441015625Q26.393900703125,28.8731641015625,26.596870703125,28.8731641015625L26.597320703125,28.8731641015625Q26.658730703125002,28.8731641015625,26.719850703125,28.867154101562498Q26.780960703125,28.8611341015625,26.841190703125,28.8491541015625Q26.901420703124998,28.8371741015625,26.960180703125,28.8193441015625Q27.018940703125,28.8015141015625,27.075680703125002,28.7780141015625Q27.132410703125,28.7545141015625,27.186570703125,28.7255741015625Q27.240730703125,28.6966241015625,27.291790703125,28.6625041015625Q27.342850703125002,28.6283841015625,27.390310703125,28.5894341015625Q27.437780703125,28.5504741015625,27.481210703125,28.5070541015625Q27.524630703125,28.4636341015625,27.563590703125,28.4161641015625Q27.602540703125,28.3686941015625,27.636660703125,28.3176341015625Q27.670780703125,28.2665741015625,27.699730703125,28.2124141015625Q27.728670703125,28.1582541015625,27.752170703125,28.1015241015625Q27.775670703125,28.0447841015625,27.793500703124998,27.9860241015625Q27.811320703125,27.9272641015625,27.823310703125,27.8670341015625Q27.835290703125,27.8068041015625,27.841300703125,27.7456941015625Q27.847320703125,27.6845741015625,27.847320703125,27.6231641015625Q27.847320703125,27.5242141015625,27.831750703125,27.4264941015625Q27.816180703125,27.3287641015625,27.785430703125,27.2347101015625Q27.754680703125,27.1406541015625,27.709510703124998,27.0526091015625Q27.664340703125,26.9645631015625,27.605880703125,26.8847211015625Q27.547420703125,26.8048781015625,27.477130703125,26.7352291015625Q27.406840703125,26.6655791015625,27.326460703125,26.6078571015625Q27.246080703125,26.5501351015625,27.157630703125,26.5057791015625Q27.069170703125,26.4614231015625,26.974830703125,26.4315371015625L23.053218703125,25.1234641015625Z" fill-rule="evenodd" fill="#EAB607" fill-opacity="1"/></g><g transform="matrix(-0.7071067690849304,0.7071067690849304,0.7071067690849304,0.7071067690849304,31.171499297248374,-12.911657111464592)"><path d="M33.475090703125,26.4315461015625L29.553021703125,25.1232141015625Q29.360461703125,25.0589741015625,29.1574707866612,25.0589741015625Q29.123097003125,25.0589741015625,29.088775303125,25.0608641015625Q28.995474703125,25.0660041015625,28.903974703125,25.0849541015625Q28.812473703125,25.1039041015625,28.724807703125,25.1362441015625Q28.637141703125,25.1685841015625,28.555258703125,25.2136041015625Q28.473375703125,25.2586241015625,28.399095703125,25.3153141015625Q28.324815703125,25.3720051015625,28.259789703125,25.4391101015625Q28.194764703125,25.5062151015625,28.140440703125,25.5822411015625Q28.086110703125,25.6582681015625,28.043690703125,25.7415271015625Q28.001270703125,25.8247861015625,27.971700703125,25.9134261015625Q27.907470703125,26.1059861015625,27.907470703125,26.3089773655625Q27.907470703125,26.3433510015625,27.909360703125,26.3776728015625Q27.914490703125,26.4709731015625,27.933440703125,26.5624741015625Q27.952390703125,26.6539741015625,27.984740703125,26.7416401015625Q28.017080703125,26.8293061015625,28.062100703125,26.9111891015625Q28.107120703125,26.9930721015625,28.163806703125,27.0673521015625Q28.220498703125,27.1416321015625,28.287603703125,27.2066581015625Q28.354707703125,27.2716841015625,28.430734703125,27.3260141015625Q28.506761703125,27.3803341015625,28.590020703125,27.4227541015625Q28.673279703125,27.4651741015625,28.761919703125,27.4947441015625L32.701550703125,28.8089341015625Q32.894110703125,28.8731641015625,33.097100703125,28.8731641015625L33.097550703125,28.8731641015625Q33.158960703125004,28.8731641015625,33.220070703125,28.867154101562498Q33.281180703125,28.8611341015625,33.341410703125,28.8491541015625Q33.401640703125,28.8371741015625,33.460410703125,28.8193441015625Q33.519170703125,28.8015141015625,33.575900703125,28.7780141015625Q33.632640703125,28.7545141015625,33.686800703125,28.7255741015625Q33.740950703125,28.6966241015625,33.792010703125,28.6625041015625Q33.843070703125,28.6283941015625,33.890540703125,28.5894341015625Q33.938010703125,28.5504741015625,33.981430703125,28.5070541015625Q34.024860703125,28.4636341015625,34.063810703125,28.4161641015625Q34.102770703125,28.3686941015625,34.136890703125,28.3176341015625Q34.171000703125,28.2665741015625,34.199950703125,28.2124141015625Q34.228900703125,28.1582541015625,34.252400703125,28.1015241015625Q34.275900703125004,28.0447841015625,34.293730703125,27.9860241015625Q34.311550703125,27.9272641015625,34.323530703125,27.8670341015625Q34.335510703125,27.8068041015625,34.341530703125,27.7456941015625Q34.347550703125,27.6845741015625,34.347550703125,27.6231641015625Q34.347550703125,27.5242141015625,34.331980703125,27.4264941015625Q34.316410703125,27.3287741015625,34.285660703125004,27.2347171015625Q34.254910703125,27.1406631015625,34.209740703125,27.0526181015625Q34.164580703125,26.9645731015625,34.106120703125,26.8847321015625Q34.047660703125,26.8048901015625,33.977370703125,26.7352411015625Q33.907080703125,26.6655911015625,33.826710703125,26.6078691015625Q33.746330703125,26.5501471015625,33.657880703125,26.5057901015625Q33.569420703125,26.4614331015625,33.475090703125,26.4315461015625Z" fill-rule="evenodd" fill="#EAB607" fill-opacity="1"/></g></g></svg>