<svg xmlns="http://www.w3.org/2000/svg" xmlns:xlink="http://www.w3.org/1999/xlink" fill="none" version="1.1" width="80" height="80" viewBox="0 0 80 80"><defs><clipPath id="master_svg0_207_01736"><rect x="0" y="0" width="80" height="80" rx="0"/></clipPath></defs><g style="opacity:0.10000000149011612;" clip-path="url(#master_svg0_207_01736)"><g><path d="M74.9904640625,33.37698359375C74.9904640625,26.93238359375,69.7669640625,17.72628359375,63.3242640625,17.72628359375L44.9567640625,17.72628359375L44.9567640625,11.58943359375C44.9567640625,9.44193359375,43.2156640625,7.70068359375,41.0680640625,7.70068359375L8.8819140625,7.70068359375C6.7344140625,7.70068359375,4.9931640625,9.44193359375,4.9931640625,11.58943359375L4.9931640625,60.59808359375C4.9931640625,62.74558359375,6.7344140625,64.95558359374999,8.8819140625,64.95558359374999L15.2164640625,64.95558359374999C16.3409640625,69.30948359375,20.2947640625,72.52558359375,25.0000640625,72.52558359375C29.7052640625,72.52558359375,33.6590640625,69.30948359375,34.7836640625,64.95558359374999L47.7424640625,64.95558359374999C48.8670640625,69.30948359375,52.8208640625,72.52558359375,57.5260640625,72.52558359375C62.2311640625,72.52558359375,66.1850640625,69.30948359375,67.30966406249999,64.95558359374999L74.9904640625,64.95558359374999L74.9904640625,33.37698359375ZM24.9478640625,67.83808359375C21.9851640625,67.83808359375,19.5833640625,65.43618359375,19.5833640625,62.47348359375C19.5833640625,59.51078359375,21.9851640625,57.10898359375,24.9478640625,57.10898359375C27.9105640625,57.10898359375,30.3123640625,59.51078359375,30.3123640625,62.47348359375C30.3123640625,65.43618359375,27.9105640625,67.83808359375,24.9478640625,67.83808359375ZM39.9743640625,60.05118359375L34.823764062500004,60.05118359375C33.757164062499996,55.61448359375,29.7639640625,52.31728359375,24.9999640625,52.31728359375C20.235964062500003,52.31728359375,16.2427640625,55.61448359375,15.1761640625,60.05118359375L9.9756640625,60.05118359375L9.9756640625,12.60506359375L39.9743640625,12.60506359375L39.9743640625,60.05118359375ZM57.4738640625,67.83808359375C54.5111640625,67.83808359375,52.1093640625,65.43618359375,52.1093640625,62.47348359375C52.1093640625,59.51078359375,54.5111640625,57.10898359375,57.4738640625,57.10898359375C60.4365640625,57.10898359375,62.8383640625,59.51078359375,62.8383640625,62.47348359375C62.8383640625,65.43618359375,60.4365640625,67.83808359375,57.4738640625,67.83808359375ZM70.0079640625,60.05118359375L67.34986406249999,60.05118359375C66.2833640625,55.61448359375,62.2899640625,52.31728359375,57.5260640625,52.31728359375C52.7621640625,52.31728359375,48.7686640625,55.61448359375,47.7021640625,60.05118359375L44.9567640625,60.05118359375L44.9567640625,22.55258359375L62.4736640625,22.55258359375C67.0313640625,22.55258359375,68.67186406249999,26.90058359375,69.9689640625,30.10448359375L55.5468640625,30.10448359375L55.5468640625,44.95628359375L70.0079640625,44.95628359375L70.0079640625,60.05118359375ZM70.0079640625,39.97368359375L60.0604640625,39.97368359375L60.0604640625,35.008783593749996L70.0079640625,35.008783593749996L70.0079640625,39.97368359375L70.0079640625,39.97368359375Z" fill="#FFFFFF" fill-opacity="1"/></g></g></svg>