<svg xmlns="http://www.w3.org/2000/svg" xmlns:xlink="http://www.w3.org/1999/xlink" fill="none" version="1.1" width="80" height="80" viewBox="0 0 80 80"><defs><clipPath id="master_svg0_207_01695"><rect x="0" y="0" width="80" height="80" rx="0"/></clipPath></defs><g style="opacity:0.10000000149011612;" clip-path="url(#master_svg0_207_01695)"><g><path d="M13.588239999999999,34.0285L13.588239999999999,66.94749999999999C13.588239999999999,67.8776,14.391490000000001,68.63159999999999,15.382349999999999,68.63159999999999L65.6177,68.63159999999999C66.60849999999999,68.63159999999999,67.4118,67.8776,67.4118,66.94749999999999L67.4118,34.0285L40.5,11.922L13.588239999999999,34.0285ZM10.61,31.9974L39.3159,8.418913C39.9932,7.860362,41.0068,7.860362,41.6841,8.418913L70.39,31.9974C70.7781,32.3174,71.0004,32.778999999999996,71,33.2639L71,66.94749999999999C71,69.7379,68.59020000000001,72,65.6177,72L15.382349999999999,72C12.40976,72,10.000000534689,69.7379,10.000000534689,66.94749999999999L10.000000534689,33.2639C9.99962144,32.778999999999996,10.221918,32.317499999999995,10.61,31.9974Z" fill="#FFFFFF" fill-opacity="1"/><path d="M8.5,66.94749999999999Q8.5,69.6896,10.549832,71.6138Q12.55917,73.5,15.382349999999999,73.5L65.6177,73.5Q68.4408,73.5,70.4502,71.6138Q72.5,69.6896,72.5,66.94749999999999L72.5,33.265100000000004Q72.5012,31.7942,71.3421,30.8383L42.6385,7.261674Q41.7149,6.5,40.5,6.5Q39.2851,6.5,38.3638,7.259797L9.657923,30.8383L9.655639,30.8402Q8.498850000000001,31.7942,8.5,33.2639L8.5,66.94749999999999ZM39.3159,8.418913L10.61,31.9974C10.221918,32.317499999999995,9.99962144,32.778999999999996,10,33.2639L10,66.94749999999999C10,69.7379,12.40976,72,15.382349999999999,72L65.6177,72C68.59020000000001,72,71,69.7379,71,66.94749999999999L71,33.2639C71.0004,32.778999999999996,70.7781,32.3174,70.39,31.9974L41.6841,8.418913C41.0068,7.860362,39.9932,7.860362,39.3159,8.418913ZM13.588239999999999,34.0285L13.588239999999999,66.94749999999999C13.588239999999999,67.8776,14.391490000000001,68.63159999999999,15.382349999999999,68.63159999999999L65.6177,68.63159999999999C66.60849999999999,68.63159999999999,67.4118,67.8776,67.4118,66.94749999999999L67.4118,34.0285L40.5,11.922L13.588239999999999,34.0285ZM40.5,13.863199999999999L65.9118,34.7375L65.9118,66.94749999999999Q65.9118,67.13159999999999,65.6177,67.13159999999999L15.382349999999999,67.13159999999999Q15.088239999999999,67.13159999999999,15.088239999999999,66.94749999999999L15.088239999999999,34.7375L40.5,13.863199999999999Z" fill-rule="evenodd" fill="#FFFFFF" fill-opacity="1"/></g><g><path d="M37.97,20.451476C38.7012,19.815158,39.8423,19.856466,40.5192,20.543757C41.196200000000005,21.23105,41.153,22.30429,40.4226,22.94143L30.4426,31.619C29.7104,32.2538,28.5698,32.2108,27.894,31.5228C27.2182,30.8348,27.2628,29.76192,27.9936,29.12561L37.97,20.451476ZM24.08383,32.5281C24.81589,31.8911,25.958370000000002,31.9329,26.6356,32.6214C27.3129,33.3099,27.2685,34.3845,26.5365,35.0214L19.009059999999998,41.565200000000004C18.27582,42.185199999999995,17.14912,42.136399999999995,16.479576,41.455600000000004C15.810031,40.7749,15.845873,39.714600000000004,16.560043,39.0753L24.08383,32.5281Z" fill="#FFFFFF" fill-opacity="1"/><path d="M37.641999999999996,20.074154L27.6655,28.74829L27.665300000000002,28.74852Q26.954900000000002,29.36707,26.916800000000002,30.284Q26.8786,31.2025,27.537300000000002,31.8731Q28.1834,32.5309,29.1283,32.5666Q30.0719,32.602199999999996,30.770699999999998,31.996299999999998L40.7513,23.31821Q41.4613,22.69882,41.4983,21.78153Q41.5353,20.862774,40.8755,20.192884Q40.2282,19.535807,39.283,19.501591Q38.3391,19.46742,37.641999999999996,20.074154ZM28.3217,29.502940000000002L28.3219,29.50271L38.298100000000005,20.828797Q38.6977,20.481055,39.2469,20.500936Q39.794799999999995,20.520771,40.163,20.894631Q40.518699999999995,21.255679999999998,40.4991,21.74127Q40.4795,22.22833,40.094,22.56465L30.1146,31.2416Q29.7151,31.588,29.166,31.5673Q28.618299999999998,31.546599999999998,28.250700000000002,31.1724Q27.895699999999998,30.811,27.9159,30.3256Q27.9361,29.83879,28.3217,29.502940000000002ZM23.75561,32.1509L16.231818,38.6981L16.22654,38.7027Q15.531911000000001,39.324600000000004,15.501202,40.233000000000004Q15.470452,41.142700000000005,16.123105,41.8063Q16.763351,42.4572,17.69879,42.497699999999995Q18.63273,42.5382,19.3371,41.9426L26.8647,35.3986Q27.5762,34.7795,27.6141,33.8614Q27.6521,32.9417,26.9921,32.2708Q26.3447,31.6126,25.39855,31.578Q24.453699999999998,31.5435,23.75561,32.1509ZM16.500631,40.2668Q16.516867,39.786500000000004,16.891101,39.45L24.41206,32.9053Q24.81204,32.5572,25.362009999999998,32.5773Q25.910690000000002,32.5974,26.2792,32.972Q26.6351,33.3338,26.615000000000002,33.8201Q26.5948,34.307900000000004,26.208199999999998,34.6443L18.68102,41.1879Q18.28553,41.5222,17.74207,41.4987Q17.20012,41.4752,16.836048,41.105000000000004Q16.484383,40.7475,16.500631,40.2668Z" fill-rule="evenodd" fill="#FFFFFF" fill-opacity="1"/></g><g><path d="M27.60939,57.56506L27.60939,66.4349L38.3906,66.4349L38.3906,57.56506L27.60939,57.56506ZM27.60939,54L38.3906,54C40.384,54,42,55.59613,42,57.56506L42,66.4349C42,68.4039,40.384,70,38.3906,70L27.60939,70C25.61598,70,24.00000215136,68.4039,24,66.4349L24,57.56506C24.00000215136,55.59613,25.61598,54,27.60939,54Z" fill="#FFFFFF" fill-opacity="1"/><path d="M24.705803,54.688452Q23.500002,55.87945,23.5,57.56506L23.5,66.4349Q23.500002,68.1206,24.705803,69.3115Q25.90903,70.5,27.60939,70.5L38.3906,70.5Q40.091,70.5,41.294200000000004,69.3115Q42.5,68.1206,42.5,66.4349L42.5,57.56506Q42.5,55.87945,41.294200000000004,54.688452Q40.091,53.5,38.3906,53.5L27.60939,53.5Q25.90903,53.5,24.705803,54.688452ZM24.5,66.4349L24.5,57.56506Q24.500001,56.29728,25.40853,55.39991Q26.31963,54.5,27.60939,54.5L38.3906,54.5Q39.6804,54.5,40.591499999999996,55.39991Q41.5,56.29729,41.5,57.56506L41.5,66.4349Q41.5,67.7027,40.591499999999996,68.6001Q39.6804,69.5,38.3906,69.5L27.60939,69.5Q26.31963,69.5,25.40853,68.6001Q24.500001,67.7027,24.5,66.4349ZM38.8906,66.9349L38.8906,57.06506L27.10939,57.06506L27.10939,66.9349L38.8906,66.9349ZM37.8906,58.06506L37.8906,65.9349L28.10939,65.9349L28.10939,58.06506L37.8906,58.06506Z" fill-rule="evenodd" fill="#FFFFFF" fill-opacity="1"/></g><g><path d="M42.60939,47.47222L42.60939,66.5278L53.3906,66.5278L53.3906,47.47222L42.60939,47.47222ZM42.60939,44L53.3906,44C55.384,44,57,45.55457,57,47.47222L57,66.5278C57,68.4454,55.384,70,53.3906,70L42.60939,70C40.61598,70,39.00000215136,68.4454,39,66.5278L39,47.47222C39.00000215136,45.55457,40.61598,44,42.60939,44Z" fill="#FFFFFF" fill-opacity="1"/><path d="M39.710525,44.656657Q38.500002,45.82118,38.5,47.47222L38.5,66.5278Q38.500002,68.1788,39.710525,69.3433Q40.91288,70.5,42.60939,70.5L53.3906,70.5Q55.0871,70.5,56.289500000000004,69.3433Q57.5,68.1788,57.5,66.5278L57.5,47.47222Q57.5,45.82118,56.289500000000004,44.656657Q55.0871,43.5,53.3906,43.5L42.60939,43.5Q40.91287,43.5,39.710525,44.656657ZM39.5,66.5278L39.5,47.47222Q39.500001,46.24678,40.40381,45.37732Q41.31579,44.5,42.60939,44.5L53.3906,44.5Q54.684200000000004,44.5,55.596199999999996,45.37732Q56.5,46.24678,56.5,47.47222L56.5,66.5278Q56.5,67.75319999999999,55.596199999999996,68.6227Q54.684200000000004,69.5,53.3906,69.5L42.60939,69.5Q41.31579,69.5,40.40381,68.6227Q39.500001,67.75319999999999,39.5,66.5278ZM53.8906,67.0278L53.8906,46.97222L42.10939,46.97222L42.10939,67.0278L53.8906,67.0278ZM52.8906,47.97222L52.8906,66.0278L43.10939,66.0278L43.10939,47.97222L52.8906,47.97222Z" fill-rule="evenodd" fill="#FFFFFF" fill-opacity="1"/></g></g></svg>