<svg xmlns="http://www.w3.org/2000/svg" xmlns:xlink="http://www.w3.org/1999/xlink" fill="none" version="1.1" width="80" height="80" viewBox="0 0 80 80"><defs><clipPath id="master_svg0_207_01719"><rect x="0" y="0" width="80" height="80" rx="0"/></clipPath></defs><g clip-path="url(#master_svg0_207_01719)"><g style="opacity:0.10000000149011612;"><path d="M47.0862078125,63.96772578125C52.5208078125,61.45732578125,58.7343078125,61.22752578125,64.3395078125,63.32962578125L71.60240781249999,66.05342578125L69.5967078125,71.40392578125L62.3338078125,68.68012578125C57.9916078125,67.05192578124999,53.1674078125,67.30522578125,49.0195078125,69.37912578125L48.4176078125,69.66872578125C42.9555078125,72.18422578125,36.6746078125,72.22582578125,31.1795078125,69.78302578124999L30.3910078125,69.43442578125C25.6524078125,67.32852578125,20.2505078125,67.29262578125,15.484317812499999,69.33532578124999L10.7719378125,71.35442578125L8.5205078125,66.10302578125L13.2328878125,64.08392578125C19.4607078125,61.41482578125,26.5192078125,61.46172578125,32.7110078125,64.21342578125001L33.4995078125,64.56202578125C37.6476078125,66.40592578125,42.4029078125,66.29832578125,46.4634078125,64.26872578125L47.0862078125,63.96772578125ZM45.7148078125,9.52392697334C48.8707078125,9.523926377296,51.4291078125,12.08229578125,51.4291078125,15.23821578125L51.4291078125,20.95252578125L57.1434078125,20.95252578125C60.2993078125,20.95252578125,62.8576078125,23.51082578125,62.8576078125,26.66682578125L62.8576078125,40.95062578125L65.4157078125,41.91252578125C68.2547078125,42.97712578125,69.7679078125,46.07372578125,68.8634078125,48.96772578125L66.66720781250001,55.98682578125C66.2550078125,57.30692578125,65.6865078125,58.57302578125,64.9738078125,59.75822578125L64.3395078125,59.52012578125C62.6367078125,58.88162578125,60.8623078125,58.45312578125,59.0557078125,58.24392578125C60.0081078125,57.10102578125,60.7510078125,55.76392578125,61.2138078125,54.28202578125L63.4100078125,47.26292578125L59.2824078125,45.71442578125L44.0424078125,40.00012578125L40.000507812500004,38.48392578125L16.5909778125,47.26302578125L18.7872078125,54.28012578125C19.2565078125,55.78312578125,20.0264078125,57.17512578125,21.0500078125,58.37152578125C18.9700078125,58.52152578125,16.9181278125,58.93952578125,14.9452678125,59.61532578125C14.2702678125,58.47192578125,13.7295478125,57.25432578125,13.3338378125,55.98682578125L11.1376478125,48.96772578125C10.2330678125,46.07372578125,11.7462778125,42.97712578125,14.5852678125,41.91252578125L17.1433678125,40.95062578125L17.1433678125,26.66682578125C17.1433678125,23.51082578125,19.7017078125,20.95252578125,22.8576078125,20.95252578125L28.5719078125,20.95252578125L28.5719078125,15.23821578125C28.5719078125,12.08229578125,31.1303078125,9.523926377296,34.286207812499995,9.52392697334L45.7148078125,9.52392697334ZM57.1434078125,26.66682578125L22.8576078125,26.66682578125L22.8576078125,38.80962578125L40.000507812500004,32.38102578125L57.1434078125,38.80962578125L57.1434078125,26.66682578125ZM45.7148078125,15.23821578125L34.286207812499995,15.23821578125L34.286207812499995,20.95252578125L45.7148078125,20.95252578125L45.7148078125,15.23821578125Z" fill="#FFFFFF" fill-opacity="1"/></g></g></svg>