<svg xmlns="http://www.w3.org/2000/svg" xmlns:xlink="http://www.w3.org/1999/xlink" fill="none" version="1.1" width="80" height="80" viewBox="0 0 80 80"><defs><clipPath id="master_svg0_207_01657"><rect x="0" y="0" width="80" height="80" rx="0"/></clipPath></defs><g clip-path="url(#master_svg0_207_01657)"><g style="opacity:0.10000000149011612;"><path d="M56.3746234375,45.06053515625L47.3666234375,36.05013515625L71.9994234375,29.33173515625L63.9994234375,21.331735156249998L32.6482234375,21.331735156249998L21.6578234375,10.34213515625C18.5330234375,7.21733515625,13.4658234375,7.21733515625,10.3426234375,10.34213515625C7.2178234375,13.466935156249999,7.2178234375,18.52933515625,10.3426234375,21.65173515625L21.332223437499998,32.64373515625L21.332223437499998,63.99573515625L29.3354234375,72.00133515625L36.052223437500004,47.36293515625L45.0626234375,56.37333515625L41.8282234375,68.22773515624999L45.6018234375,72.00133515625L55.0314234375,55.03253515625L71.9994234375,45.59493515625L68.2338234375,41.82933515625L56.3746234375,45.06053515625ZM48.8298234375,52.60533515625L33.3218234375,37.09493515625L26.6658234375,61.50613515625L26.6634234375,30.43573515625L14.1146234375,17.88133515625C13.0754234375,16.84773515625,13.077823437500001,15.15173515625,14.1194234375,14.107735156250001C15.1623534375,13.07045515625,16.8479434375,13.072605156249999,17.888223437500002,14.11253515625L30.4354234375,26.66453515625L61.5082234375,26.66453515625L37.0962234375,33.32053515625L52.6034234375,48.83173515625L48.8298234375,52.60533515625Z" fill="#FFFFFF" fill-opacity="1"/></g></g></svg>