<svg xmlns="http://www.w3.org/2000/svg" xmlns:xlink="http://www.w3.org/1999/xlink" fill="none" version="1.1" width="52" height="52" viewBox="0 0 52 52"><defs><clipPath id="master_svg0_207_7110"><rect x="0" y="0" width="52" height="52" rx="0"/></clipPath></defs><g clip-path="url(#master_svg0_207_7110)"><g><path d="M39,5.25Q38.9127,5.133566,38.8009,5.04031Q38.6892,4.94705,38.559,4.88197Q38.428799999999995,4.81688,38.2872,4.78344Q38.1455,4.75,38,4.75L14,4.75Q13.85446,4.75,13.712810000000001,4.78344Q13.571159999999999,4.81688,13.44098,4.88197Q13.31081,4.94705,13.199069999999999,5.04031Q13.08733,5.133566,13,5.25L7,13.25Q6.87829,13.412279999999999,6.81415,13.60471Q6.75,13.79715,6.75,14L6.75,42Q6.75,44.1746,8.287692,45.7123Q9.82538,47.25,12,47.25L40,47.25Q42.1746,47.25,43.7123,45.7123Q45.25,44.1746,45.25,42L45.25,14Q45.25,13.79715,45.1859,13.60471Q45.1217,13.412279999999999,45,13.25L39,5.25ZM37.375,7.25L14.625,7.25L9.25,14.41667L9.25,42Q9.25,43.1391,10.05545,43.9445Q10.86091,44.75,12,44.75L40,44.75Q41.1391,44.75,41.9445,43.9445Q42.75,43.1391,42.75,42L42.75,14.41667L37.375,7.25Z" fill-rule="evenodd" fill="#606AFF" fill-opacity="1"/></g><g><path d="M8,16.25L44,16.25Q44.0614,16.25,44.1225,16.24398Q44.1836,16.23796,44.2439,16.22598Q44.3041,16.214,44.3629,16.19618Q44.4216,16.178350000000002,44.4784,16.15485Q44.5351,16.13135,44.5892,16.1024Q44.6434,16.07345,44.6945,16.03934Q44.7455,16.00522,44.793,15.966263Q44.8405,15.927306,44.8839,15.883883Q44.9273,15.840461,44.9663,15.792992Q45.0052,15.745522,45.0393,15.694463Q45.0735,15.643403,45.1024,15.589246Q45.1313,15.535088,45.1548,15.478354Q45.1783,15.42162,45.1962,15.362856Q45.214,15.304091,45.226,15.243863Q45.238,15.183634,45.244,15.122521Q45.25,15.0614086,45.25,15Q45.25,14.9385914,45.244,14.877479Q45.238,14.816366,45.226,14.756137Q45.214,14.695909,45.1962,14.637144Q45.1783,14.57838,45.1548,14.521646Q45.1313,14.464912,45.1024,14.410754Q45.0735,14.356597,45.0393,14.305537Q45.0052,14.254478,44.9663,14.207008Q44.9273,14.159539,44.8839,14.116117Q44.8405,14.072694,44.793,14.033737Q44.7455,13.99478,44.6945,13.96066Q44.6434,13.92655,44.5892,13.8976Q44.5351,13.86865,44.4784,13.84515Q44.4216,13.82165,44.3629,13.80382Q44.3041,13.786,44.2439,13.77402Q44.1836,13.76204,44.1225,13.75602Q44.0614,13.75,44,13.75L8,13.75Q7.9385914,13.75,7.877479,13.75602Q7.816366,13.76204,7.756137,13.77402Q7.695909,13.786,7.637144,13.80382Q7.57838,13.82165,7.521646,13.84515Q7.464912,13.86865,7.410754,13.8976Q7.356597,13.92655,7.305537,13.96066Q7.254478,13.99478,7.207008,14.033737Q7.159539,14.072694,7.116117,14.116117Q7.072694,14.159539,7.033737,14.207008Q6.99478,14.254478,6.96066,14.305537Q6.92655,14.356597,6.8976,14.410754Q6.86865,14.464912,6.84515,14.521646Q6.82165,14.57838,6.80382,14.637144Q6.786,14.695909,6.77402,14.756137Q6.76204,14.816366,6.7560199999999995,14.877479Q6.75,14.9385914,6.75,15Q6.75,15.0614086,6.7560199999999995,15.122521Q6.76204,15.183634,6.77402,15.243863Q6.786,15.304091,6.80382,15.362856Q6.82165,15.42162,6.84515,15.478354Q6.86865,15.535088,6.8976,15.589246Q6.92655,15.643403,6.96066,15.694463Q6.99478,15.745522,7.033737,15.792992Q7.072694,15.840461,7.116117,15.883883Q7.159539,15.927306,7.207008,15.966263Q7.254478,16.00522,7.305537,16.03934Q7.356597,16.07345,7.410754,16.1024Q7.464912,16.13135,7.521646,16.15485Q7.57838,16.178350000000002,7.637144,16.19618Q7.695909,16.214,7.756137,16.22598Q7.816366,16.23796,7.877479,16.24398Q7.9385914,16.25,8,16.25Z" fill-rule="evenodd" fill="#606AFF" fill-opacity="1"/></g><g><path d="M21.22703,26.77297Q19.25,24.79594,19.25,22Q19.25,21.9385914,19.24398,21.877479Q19.23796,21.816366,19.22598,21.756137Q19.214,21.695909,19.19618,21.637144Q19.178350000000002,21.57838,19.15485,21.521646Q19.13135,21.464911999999998,19.1024,21.410754Q19.07345,21.356597,19.03934,21.305537Q19.00522,21.254478,18.966263,21.207008Q18.927306,21.159539,18.883883,21.116117Q18.840461,21.072694,18.792992,21.033737Q18.745522,20.99478,18.694463,20.96066Q18.643403,20.92655,18.589246,20.8976Q18.535088000000002,20.86865,18.478354,20.84515Q18.42162,20.821649999999998,18.362856,20.80382Q18.304091,20.786,18.243863,20.77402Q18.183634,20.76204,18.122521,20.75602Q18.0614086,20.75,18,20.75Q17.9385914,20.75,17.877479,20.75602Q17.816366,20.76204,17.756137,20.77402Q17.695909,20.786,17.637144,20.80382Q17.57838,20.821649999999998,17.521646,20.84515Q17.464911999999998,20.86865,17.410754,20.8976Q17.356597,20.92655,17.305537,20.96066Q17.254478,20.99478,17.207008,21.033737Q17.159539,21.072694,17.116117,21.116117Q17.072694,21.159539,17.033737,21.207008Q16.99478,21.254478,16.96066,21.305537Q16.92655,21.356597,16.8976,21.410754Q16.86865,21.464911999999998,16.84515,21.521646Q16.821649999999998,21.57838,16.80382,21.637144Q16.786,21.695909,16.77402,21.756137Q16.76204,21.816366,16.75602,21.877479Q16.75,21.9385914,16.75,22Q16.75,23.83994,17.454114,25.53982Q18.158228,27.2397,19.45926,28.54074Q20.76029,29.84177,22.46018,30.54589Q24.16006,31.25,26,31.25Q27.83994,31.25,29.5398,30.54589Q31.2397,29.84177,32.5407,28.54074Q33.8418,27.2397,34.5459,25.53982Q35.25,23.83994,35.25,22Q35.25,21.9385914,35.244,21.877479Q35.238,21.816366,35.226,21.756137Q35.214,21.695909,35.196200000000005,21.637144Q35.1783,21.57838,35.1548,21.521646Q35.131299999999996,21.464911999999998,35.1024,21.410754Q35.073499999999996,21.356597,35.0393,21.305537Q35.0052,21.254478,34.966300000000004,21.207008Q34.9273,21.159539,34.8839,21.116117Q34.8405,21.072694,34.793,21.033737Q34.7455,20.99478,34.694500000000005,20.96066Q34.6434,20.92655,34.589200000000005,20.8976Q34.5351,20.86865,34.4784,20.84515Q34.4216,20.821649999999998,34.362899999999996,20.80382Q34.3041,20.786,34.2439,20.77402Q34.1836,20.76204,34.1225,20.75602Q34.0614,20.75,34,20.75Q33.9386,20.75,33.8775,20.75602Q33.8164,20.76204,33.7561,20.77402Q33.6959,20.786,33.637100000000004,20.80382Q33.5784,20.821649999999998,33.5216,20.84515Q33.4649,20.86865,33.4108,20.8976Q33.3566,20.92655,33.3055,20.96066Q33.2545,20.99478,33.207,21.033737Q33.1595,21.072694,33.1161,21.116117Q33.0727,21.159539,33.033699999999996,21.207008Q32.9948,21.254478,32.9607,21.305537Q32.926500000000004,21.356597,32.8976,21.410754Q32.8686,21.464911999999998,32.8451,21.521646Q32.821600000000004,21.57838,32.8038,21.637144Q32.786,21.695909,32.774,21.756137Q32.762,21.816366,32.756,21.877479Q32.75,21.9385914,32.75,22Q32.75,24.79594,30.773,26.77297Q28.7959,28.75,26,28.75Q23.20406,28.75,21.22703,26.77297Z" fill-rule="evenodd" fill="#EAB607" fill-opacity="1"/></g></g></svg>