<svg xmlns="http://www.w3.org/2000/svg" xmlns:xlink="http://www.w3.org/1999/xlink" fill="none" version="1.1" width="24" height="24" viewBox="0 0 24 24"><defs><clipPath id="master_svg0_207_04409"><rect x="8" y="8" width="8" height="8" rx="0"/></clipPath></defs><g><g clip-path="url(#master_svg0_207_04409)"><g><path d="M11.93473,12.35999C12.17196,12.10146,12.17275,11.651019999999999,11.93422,11.39109C10.96068,10.33025,9.99021,9.26606,9.018699999999999,8.203042C8.925145,8.100666,8.814228,8.0352992,8.683166,8.0121613C8.657003,8.00753791,8.630649,8.00405726,8.604371,8C8.596772,8,8.589134,8,8.581534,8C8.551624,8.00466535,8.521408,8.00765322,8.49191,8.0142476C8.245101,8.0695396,8.0854418,8.230069,8.0178312,8.494913C7.99410281,8.587999,7.99702574,8.696445,8.00941702,8.784405C8.0224025,8.87639,8.0621543,8.96132,8.116741,9.035C8.142271,9.06948,8.168999,9.10326,8.197673,9.13467C9.02076,10.03576,9.84422,10.936589999999999,10.66775,11.83723C10.67845,11.848939999999999,10.69167,11.85795,10.70619,11.87032C10.69047,11.88834,10.68043,11.90029,10.67003,11.91168C9.8727,12.78397,9.07598,13.65696,8.277339,14.52777C8.16001,14.65568,8.0287275,14.78046,8.00941702,14.96786C8.000274487,15.05631,7.99563615,15.14715,8.00941702,15.23487C8.0162308,15.27836,8.0335958,15.31939,8.0501463,15.35941C8.225483,15.78364,8.713640999999999,15.880320000000001,9.01866,15.547419999999999C9.99141,14.48568,10.96116,13.42079,11.93473,12.35999ZM8.581496,8L8.491872,8.0142476C8.521408,8.00765325,8.551624,8.00466535,8.581496,8ZM12.08755,8.00790485C11.80588,8.0310847,11.56548,8.308205,11.55646,8.616914C11.55054,8.819463,11.61673,8.987079,11.74689,9.12936C12.572479999999999,10.03146,13.39729,10.93446,14.22265,11.836780000000001C14.23403,11.849219999999999,14.24998,11.85664,14.27154,11.87187C14.24664,11.8935,14.23362,11.902709999999999,14.22288,11.91447C13.71847,12.46585,13.21426,13.01753,12.710049999999999,13.56916C12.387360000000001,13.92213,12.06475,14.27523,11.74198,14.62812C11.59782,14.78574,11.53201,14.974409999999999,11.56375,15.196159999999999C11.59955,15.44688,11.730080000000001,15.622,11.94705,15.7071C12.16534,15.792639999999999,12.36726,15.74604,12.54365,15.57859C12.558060000000001,15.56495,12.57181,15.55045,12.585280000000001,15.53571C13.54976,14.48068,14.5121,13.42333,15.48006,12.37219C15.72668,12.104320000000001,15.72803,11.651060000000001,15.489,11.39064C14.51539,10.32992,13.54497,9.26569,12.57349,8.202633C12.4799,8.100247,12.368829999999999,8.035142,12.23781,8.0120355C12.21161,8.00741211,12.18525,8.0039734,12.15897,8C12.151340000000001,8,12.143740000000001,8,12.136099999999999,8.0000419438C12.11992,8.00270485,12.10379,8.00655245,12.08755,8.00790485Z" fill="#B3B3B3" fill-opacity="1"/></g></g><g><ellipse cx="12" cy="12" rx="11.5" ry="11.5" fill-opacity="0" stroke-opacity="1" stroke="#B3B3B3" fill="none" stroke-width="1"/></g></g></svg>