<svg xmlns="http://www.w3.org/2000/svg" xmlns:xlink="http://www.w3.org/1999/xlink" fill="none" version="1.1" width="52" height="52" viewBox="0 0 52 52"><defs><clipPath id="master_svg0_207_6581"><rect x="0" y="0" width="52" height="52" rx="0"/></clipPath></defs><g clip-path="url(#master_svg0_207_6581)"><g><path d="M13.00129875,12.082763671875L17.33463875,12.082763671875Q17.396038750000002,12.082763671875,17.457158749999998,12.076743671875Q17.51826875,12.070723671875,17.57849875,12.058743671875Q17.63872875,12.046763671875,17.697488749999998,12.028943671875Q17.756248749999997,12.011113671875,17.812988750000002,11.987613671875Q17.86971875,11.964113671875,17.92387875,11.935163671875Q17.97803875,11.906213671875,18.02909875,11.872103671875Q18.080158750000002,11.837983671875,18.12762875,11.799026671875Q18.17509875,11.760069671875,18.21851875,11.716646671875Q18.26193875,11.673224671875,18.30089875,11.625755671875Q18.339858749999998,11.578285671875,18.37396875,11.527226671875Q18.408088749999997,11.476166671875,18.43703875,11.422009671875Q18.465978749999998,11.367851671875,18.48947875,11.311117671875Q18.512978750000002,11.254383671875,18.53080875,11.195619671875Q18.548638750000002,11.136854671875,18.56061875,11.076626671875Q18.572598749999997,11.016397671875,18.57861875,10.955284671875Q18.58463875,10.894172271875,18.58463875,10.832763671875Q18.58463875,10.771355071875,18.57861875,10.710242671875Q18.572598749999997,10.649129671875,18.56061875,10.588900671875Q18.548638750000002,10.528672671875,18.53080875,10.469907671875Q18.512978750000002,10.411143671875,18.48947875,10.354409671875Q18.465978749999998,10.297675671875,18.43703875,10.243517671875Q18.408088749999997,10.189360671875,18.37396875,10.138300671875Q18.339858749999998,10.087241671875,18.30089875,10.039771671875Q18.26193875,9.992302671875,18.21851875,9.948880671875Q18.17509875,9.905457671875,18.12762875,9.866500671875Q18.080158750000002,9.827543671875,18.02909875,9.793423671875Q17.97803875,9.759313671875,17.92387875,9.730363671875Q17.86971875,9.701413671875,17.812988750000002,9.677913671875Q17.75625875,9.654413671875,17.697488749999998,9.636583671875Q17.63872875,9.618763671875,17.57849875,9.606783671875Q17.51826875,9.594803671875,17.457158749999998,9.588783671875Q17.396038750000002,9.582763671875,17.33463875,9.582763671875L13.00129875,9.582763671875Q10.73112875,9.582763671875,9.10671675,11.026682671875Q7.41796875,12.527793671875,7.41796875,14.684613671875L7.41796875,41.647563671875005Q7.41796875,43.804363671875,9.10671775,45.305463671875Q10.73113875,46.749463671875,13.00129875,46.749463671875L39.00126875,46.749463671875Q41.27146875,46.749463671875,42.89586875,45.305463671875Q44.58466875,43.804363671875,44.58466875,41.647563671875005L44.58466875,14.684613671875Q44.58466875,12.527793671875,42.89586875,11.026683671875Q41.27146875,9.582763671875,39.00126875,9.582763671875L34.66796875,9.582763671875Q34.60656875,9.582763671875,34.54546875,9.588783671875Q34.48436875,9.594803671875,34.42406875,9.606783671875Q34.36386875,9.618763671875,34.305068750000004,9.636583671875Q34.24636875,9.654413671875,34.18956875,9.677913671875Q34.13286875,9.701413671875,34.078768749999995,9.730363671875Q34.02456875,9.759313671875,33.973468749999995,9.793423671875Q33.92246875,9.827543671875,33.87496875,9.866500671875Q33.82746875,9.905457671875,33.78406875,9.948880671875Q33.74066875,9.992302671875,33.701668749999996,10.039771671875Q33.66276875,10.087241671875,33.62866875,10.138300671875Q33.594468750000004,10.189360671875,33.56556875,10.243517671875Q33.53656875,10.297675671875,33.51306875,10.354409671875Q33.489568750000004,10.411143671875,33.471768749999995,10.469907671875Q33.45396875,10.528672671875,33.44196875,10.588900671875Q33.42996875,10.649129671875,33.42396875,10.710242671875Q33.41796875,10.771355071875,33.41796875,10.832763671875Q33.41796875,10.894172271875,33.42396875,10.955284671875Q33.42996875,11.016397671875,33.44196875,11.076626671875Q33.45396875,11.136854671875,33.471768749999995,11.195619671875Q33.489568750000004,11.254383671875,33.51306875,11.311117671875Q33.536668750000004,11.367851671875,33.56556875,11.422009671875Q33.594468750000004,11.476166671875,33.62866875,11.527226671875Q33.66276875,11.578285671875,33.701668749999996,11.625755671875Q33.74066875,11.673224671875,33.78406875,11.716646671875Q33.82746875,11.760069671875,33.87496875,11.799026671875Q33.92246875,11.837983671875,33.973468749999995,11.872103671875Q34.02456875,11.906213671875,34.078768749999995,11.935163671875Q34.13286875,11.964113671875,34.18956875,11.987613671875Q34.24636875,12.011113671875,34.305068750000004,12.028943671875Q34.36386875,12.046763671875,34.42406875,12.058743671875Q34.48436875,12.070723671875,34.54546875,12.076743671875Q34.60656875,12.082763671875,34.66796875,12.082763671875L39.00126875,12.082763671875Q40.32096875,12.082763671875,41.23496875,12.895203671875Q42.08466875,13.650463671875,42.08466875,14.684613671875L42.08466875,41.647563671875005Q42.08466875,42.681763671875004,41.23496875,43.436963671875Q40.32096875,44.249463671875,39.00126875,44.249463671875L13.00129875,44.249463671875Q11.68162875,44.249463671875,10.76762875,43.436963671875Q9.91796875,42.681763671875004,9.91796875,41.647563671875005L9.91796875,14.684613671875Q9.91796875,13.650453671874999,10.76762875,12.895203671875Q11.68162875,12.082763671875,13.00129875,12.082763671875Z" fill-rule="evenodd" fill="#606AFF" fill-opacity="1"/></g><g><path d="M17.08274925,6.250718Q16.08203125,7.251437,16.08203125,8.66667L16.08203125,13Q16.08203125,14.415230000000001,17.08274925,15.41595Q18.08346825,16.41667,19.49870125,16.41667L32.49873125,16.41667Q33.913931250000005,16.41667,34.91463125,15.41595Q35.91533125,14.415230000000001,35.91533125,13L35.91533125,8.66667Q35.91533125,7.251437,34.91463125,6.250718Q33.913931250000005,5.25,32.49873125,5.25L19.49870125,5.25Q18.08346825,5.25,17.08274925,6.250718ZM18.58203125,13L18.58203125,8.66667Q18.58203125,8.28697,18.85052125,8.01849Q19.11900125,7.75,19.49870125,7.75L32.49873125,7.75Q32.87843125,7.75,33.14683125,8.01849Q33.41533125,8.28697,33.41533125,8.66667L33.41533125,13Q33.41533125,13.3797,33.14683125,13.64818Q32.87843125,13.91667,32.49873125,13.91667L19.49870125,13.91667Q19.11900125,13.91667,18.85052125,13.64818Q18.58203125,13.3797,18.58203125,13Z" fill-rule="evenodd" fill="#606AFF" fill-opacity="1"/></g><g><path d="M24.75,23.832763671875L24.75,36.832763671875Q24.75,36.894163671875,24.75602,36.955263671875Q24.76204,37.016363671875,24.77402,37.076663671875Q24.786,37.136863671875,24.80382,37.195663671874996Q24.821649999999998,37.254363671875,24.84515,37.311163671875Q24.86865,37.367863671875,24.8976,37.421963671875Q24.92655,37.476163671875,24.96066,37.527263671875Q24.99478,37.578263671875,25.033737,37.625763671875Q25.072694,37.673263671875,25.116117,37.716663671875Q25.159539,37.760063671875,25.207008,37.799063671875004Q25.254478,37.837963671875,25.305537,37.872063671875Q25.356597,37.906263671874996,25.410754,37.935163671875Q25.464911999999998,37.964063671874996,25.521646,37.987563671875Q25.57838,38.011063671875,25.637144,38.028963671875Q25.695909,38.046763671875,25.756137,38.058763671875Q25.816366,38.070763671875,25.877479,38.076763671875Q25.9385914,38.082763671875,26,38.082763671875Q26.0614086,38.082763671875,26.122521,38.076763671875Q26.183634,38.070763671875,26.243863,38.058763671875Q26.304091,38.046763671875,26.362856,38.028963671875Q26.42162,38.011063671875,26.478354,37.987563671875Q26.535088000000002,37.964063671874996,26.589246,37.935163671875Q26.643403,37.906263671874996,26.694463,37.872063671875Q26.745522,37.837963671875,26.792992,37.799063671875004Q26.840461,37.760063671875,26.883883,37.716663671875Q26.927306,37.673263671875,26.966263,37.625763671875Q27.00522,37.578263671875,27.03934,37.527263671875Q27.07345,37.476163671875,27.1024,37.421963671875Q27.13135,37.367863671875,27.15485,37.311163671875Q27.178350000000002,37.254363671875,27.19618,37.195663671874996Q27.214,37.136863671875,27.22598,37.076663671875Q27.23796,37.016363671875,27.24398,36.955263671875Q27.25,36.894163671875,27.25,36.832763671875L27.25,23.832763671875Q27.25,23.771355071875,27.24398,23.710242671875Q27.23796,23.649129671875,27.22598,23.588900671875Q27.214,23.528672671875,27.19618,23.469907671875Q27.178350000000002,23.411143671875,27.15485,23.354409671875Q27.13135,23.297675671874998,27.1024,23.243517671875Q27.07345,23.189360671875,27.03934,23.138300671875Q27.00522,23.087241671875,26.966263,23.039771671875Q26.927306,22.992302671875,26.883883,22.948880671875Q26.840461,22.905457671875,26.792992,22.866500671875Q26.745522,22.827543671875,26.694463,22.793423671875Q26.643403,22.759313671875,26.589246,22.730363671875Q26.535088000000002,22.701413671875,26.478354,22.677913671875Q26.42162,22.654413671874998,26.362856,22.636583671875Q26.304091,22.618763671875,26.243863,22.606783671875Q26.183634,22.594803671875,26.122521,22.588783671875Q26.0614086,22.582763671875,26,22.582763671875Q25.9385914,22.582763671875,25.877479,22.588783671875Q25.816366,22.594803671875,25.756137,22.606783671875Q25.695909,22.618763671875,25.637144,22.636583671875Q25.57838,22.654413671874998,25.521646,22.677913671875Q25.464911999999998,22.701413671875,25.410754,22.730363671875Q25.356597,22.759313671875,25.305537,22.793423671875Q25.254478,22.827543671875,25.207008,22.866500671875Q25.159539,22.905457671875,25.116117,22.948880671875Q25.072694,22.992302671875,25.033737,23.039771671875Q24.99478,23.087241671875,24.96066,23.138300671875Q24.92655,23.189360671875,24.8976,23.243517671875Q24.86865,23.297675671874998,24.84515,23.354409671875Q24.821649999999998,23.411143671875,24.80382,23.469907671875Q24.786,23.528672671875,24.77402,23.588900671875Q24.76204,23.649129671875,24.75602,23.710242671875Q24.75,23.771355071875,24.75,23.832763671875Z" fill-rule="evenodd" fill="#EAB607" fill-opacity="1"/></g><g><path d="M19.5,31.582763671875L32.5,31.582763671875Q32.5614,31.582763671875,32.6225,31.576743671875Q32.6836,31.570723671875,32.7439,31.558743671875Q32.8041,31.546763671875,32.862899999999996,31.528943671875Q32.9216,31.511113671875002,32.9784,31.487613671875Q33.0351,31.464113671875,33.0892,31.435163671875Q33.1434,31.406213671875,33.1945,31.372103671875Q33.2455,31.337983671875,33.293,31.299026671875Q33.3405,31.260069671875,33.3839,31.216646671875Q33.4273,31.173224671875,33.466300000000004,31.125755671875Q33.5052,31.078285671875,33.5393,31.027226671875Q33.573499999999996,30.976166671875,33.6024,30.922009671875Q33.631299999999996,30.867851671875002,33.6548,30.811117671875Q33.6783,30.754383671875,33.6962,30.695619671875Q33.714,30.636854671875,33.726,30.576626671875Q33.738,30.516397671875,33.744,30.455284671875Q33.75,30.394172271875,33.75,30.332763671875Q33.75,30.271355071875,33.744,30.210242671875Q33.738,30.149129671875,33.726,30.088900671875Q33.714,30.028672671875,33.6962,29.969907671875Q33.6783,29.911143671875,33.6548,29.854409671875Q33.631299999999996,29.797675671874998,33.6024,29.743517671875Q33.573499999999996,29.689360671875,33.5393,29.638300671875Q33.5052,29.587241671875,33.466300000000004,29.539771671875Q33.4273,29.492302671875,33.3839,29.448880671875Q33.3405,29.405457671875,33.293,29.366500671875Q33.2455,29.327543671875,33.1945,29.293423671875Q33.1434,29.259313671875,33.0892,29.230363671875Q33.0351,29.201413671875,32.9784,29.177913671875Q32.9216,29.154413671874998,32.862899999999996,29.136583671875Q32.8041,29.118763671875,32.7439,29.106783671875Q32.6836,29.094803671875,32.6225,29.088783671875Q32.5614,29.082763671875,32.5,29.082763671875L19.5,29.082763671875Q19.4385914,29.082763671875,19.377479,29.088783671875Q19.316366,29.094803671875,19.256137,29.106783671875Q19.195909,29.118763671875,19.137144,29.136583671875Q19.07838,29.154413671874998,19.021646,29.177913671875Q18.964911999999998,29.201413671875,18.910754,29.230363671875Q18.856597,29.259313671875,18.805537,29.293423671875Q18.754478,29.327543671875,18.707008,29.366500671875Q18.659539,29.405457671875,18.616117,29.448880671875Q18.572694,29.492302671875,18.533737,29.539771671875Q18.49478,29.587241671875,18.46066,29.638300671875Q18.42655,29.689360671875,18.3976,29.743517671875Q18.36865,29.797675671874998,18.34515,29.854409671875Q18.321649999999998,29.911143671875,18.30382,29.969907671875Q18.286,30.028672671875,18.27402,30.088900671875Q18.26204,30.149129671875,18.25602,30.210242671875Q18.25,30.271355071875,18.25,30.332763671875Q18.25,30.394172271875,18.25602,30.455284671875Q18.26204,30.516397671875,18.27402,30.576626671875Q18.286,30.636854671875,18.30382,30.695619671875Q18.321649999999998,30.754383671875,18.34515,30.811117671875Q18.36865,30.867851671875002,18.3976,30.922009671875Q18.42655,30.976166671875,18.46066,31.027226671875Q18.49478,31.078285671875,18.533737,31.125755671875Q18.572694,31.173224671875,18.616117,31.216646671875Q18.659539,31.260069671875,18.707008,31.299026671875Q18.754478,31.337983671875,18.805537,31.372103671875Q18.856597,31.406213671875,18.910754,31.435163671875Q18.964911999999998,31.464113671875,19.021646,31.487613671875Q19.07838,31.511113671875002,19.137144,31.528943671875Q19.195909,31.546763671875,19.256137,31.558743671875Q19.316366,31.570723671875,19.377479,31.576743671875Q19.4385914,31.582763671875,19.5,31.582763671875Z" fill-rule="evenodd" fill="#EAB607" fill-opacity="1"/></g></g></svg>