<svg xmlns="http://www.w3.org/2000/svg" xmlns:xlink="http://www.w3.org/1999/xlink" fill="none" version="1.1" width="16" height="14.608642578125" viewBox="0 0 16 14.608642578125"><g><g style="opacity:0;"><rect x="0" y="0" width="16" height="14.608695983886719" rx="0" fill="#000000" fill-opacity="1"/></g><g><path d="M8.809260859375,7.30432341796875L12.910820859375,2.84039241796875C12.979570859375,2.76620741796875,12.921750859375,2.6535034179687504,12.815510859375,2.6535034179687504L11.568630859375,2.6535034179687504C11.495190859375,2.6535034179687504,11.424880859375,2.68346261796875,11.376440859375,2.73482131796875L7.993630859375,6.416953417968751L4.610820859375,2.73482131796875C4.563940859375,2.68346261796875,4.493630859375,2.65350341796875,4.418630859375,2.65350341796875L3.171755859375,2.65350341796875C3.065506059375,2.65350341796875,3.007693559375,2.76620741796875,3.076443559375,2.84039241796875L7.178010859375,7.30432341796875L3.076443559375,11.76824341796875C3.007693559375,11.84243341796875,3.065506059375,11.95513341796875,3.171755859375,11.95513341796875L4.418630859375,11.95513341796875C4.492070859375,11.95513341796875,4.562380859375,11.92517341796875,4.610820859375,11.87381341796875L7.993630859375,8.19168341796875L11.376440859375,11.87381341796875C11.423320859375,11.92517341796875,11.493630859375,11.95513341796875,11.568630859375,11.95513341796875L12.815510859375,11.95513341796875C12.921750859375,11.95513341796875,12.979570859375,11.84243341796875,12.910820859375,11.76824341796875L8.809260859375,7.30432341796875Z" fill-rule="evenodd" fill="#8C8C8C" fill-opacity="1"/></g></g></svg>