<svg xmlns="http://www.w3.org/2000/svg" xmlns:xlink="http://www.w3.org/1999/xlink" fill="none" version="1.1" width="24" height="24" viewBox="0 0 24 24"><defs><clipPath id="master_svg0_3_6749"><rect x="24" y="24" width="24" height="24" rx="0"/></clipPath></defs><g transform="matrix(0,-1,-1,0,48,48)" clip-path="url(#master_svg0_3_6749)"><g><path d="M36.49725,35.53828C36.49725,35.53828,30.51366,27.892969,30.51366,27.892969C30.44335,27.8015626,30.333190000000002,27.75,30.21835,27.75C30.21835,27.75,28.406629,27.75,28.406629,27.75C28.2495979,27.75,28.1628791,27.930469,28.2589728,28.052344C28.2589728,28.052344,34.47929,36,34.47929,36C34.47929,36,28.2589728,43.9477,28.2589728,43.9477C28.2373325,43.975300000000004,28.22390507,44.0085,28.22022566,44.0434C28.21654624,44.0783,28.22276356,44.1135,28.2381664,44.144999999999996C28.2535693,44.1766,28.2775362,44.203199999999995,28.307327,44.2217C28.337118,44.240300000000005,28.37153,44.2501,28.406629,44.25C28.406629,44.25,30.21835,44.25,30.21835,44.25C30.333190000000002,44.25,30.44335,44.1961,30.51366,44.107C30.51366,44.107,36.49725,36.46406,36.49725,36.46406C36.71054,36.189840000000004,36.71054,35.810159999999996,36.49725,35.53828C36.49725,35.53828,36.49725,35.53828,36.49725,35.53828ZM43.62225,35.53828C43.62225,35.53828,37.63866,27.892969,37.63866,27.892969C37.56835,27.8015626,37.45819,27.75,37.34335,27.75C37.34335,27.75,35.53163,27.75,35.53163,27.75C35.3746,27.75,35.28788,27.930469,35.38397,28.052344C35.38397,28.052344,41.60425,36,41.60425,36C41.60425,36,35.38397,43.9477,35.38397,43.9477C35.36233,43.975300000000004,35.3489,44.0085,35.34523,44.0434C35.34155,44.0783,35.34776,44.1135,35.36317,44.144999999999996C35.378569999999996,44.1766,35.40254,44.203199999999995,35.43233,44.2217C35.46212,44.240300000000005,35.49653,44.2501,35.53163,44.25C35.53163,44.25,37.34335,44.25,37.34335,44.25C37.45819,44.25,37.56835,44.1961,37.63866,44.107C37.63866,44.107,43.62225,36.46406,43.62225,36.46406C43.83555,36.189840000000004,43.83555,35.810159999999996,43.62225,35.53828C43.62225,35.53828,43.62225,35.53828,43.62225,35.53828Z" fill="#262626" fill-opacity="1"/></g></g></svg>