<svg xmlns="http://www.w3.org/2000/svg" xmlns:xlink="http://www.w3.org/1999/xlink" fill="none" version="1.1" width="18.000001907348633" height="18.01637840270996" viewBox="0 0 18.000001907348633 18.01637840270996"><defs><clipPath id="master_svg0_207_6631"><rect x="0" y="0" width="18.000001907348633" height="18.01637840270996" rx="0"/></clipPath></defs><g style="opacity:0.6000000238418579;" clip-path="url(#master_svg0_207_6631)"><g><path d="M16.5,7.9618465625Q16.5,4.8706365625,14.3023,2.6852265625Q12.1058,0.5009765625,9,0.5009765625Q5.89422,0.5009765625,3.6976899999999997,2.6852265625Q1.5,4.8706365625,1.5,7.9618465625Q1.5,11.5456765625,5.13799,15.3642765625Q6.92682,17.2419765625,8.72373,18.4331765625Q8.785160000000001,18.4738765625,8.855730000000001,18.4951765625Q8.926300000000001,18.5164765625,9,18.5164765625Q9.073699999999999,18.5164765625,9.144269999999999,18.4951765625Q9.214839999999999,18.4738765625,9.27627,18.4331765625Q11.07319,17.2419765625,12.862,15.3642765625Q16.5,11.5456765625,16.5,7.9618465625ZM9,1.5009765625Q11.69321,1.5009765625,13.5972,3.3943165625Q15.5,5.2864865625,15.5,7.9618465625Q15.5,11.1455765625,12.138,14.6744765625Q10.56558,16.324976562499998,9,17.4121765625Q7.43442,16.324976562499998,5.86201,14.6744765625Q2.5,11.1455765625,2.5,7.9618465625Q2.5,5.2864865625,4.402810000000001,3.3943165625Q6.30679,1.5009765625,9,1.5009765625Z" fill-rule="evenodd" fill="#FFFFFF" fill-opacity="1"/></g><g><path d="M11.62148,5.38390153125Q10.74277,4.50439453125,9.5,4.50439453125Q8.25723,4.50439453125,7.378519,5.38390153125Q6.5,6.26322453125,6.5,7.50666453125Q6.5,8.75012453125,7.378519,9.62943453125Q8.25723,10.50894453125,9.5,10.50894453125Q10.74277,10.50894453125,11.62148,9.62943453125Q12.5,8.75011453125,12.5,7.50666453125Q12.5,6.26322453125,11.62148,5.38390153125ZM8.08595,6.09068453125Q8.671710000000001,5.50439453125,9.5,5.50439453125Q10.328289999999999,5.50439453125,10.91405,6.09068453125Q11.5,6.67716453125,11.5,7.50666453125Q11.5,8.33617453125,10.91405,8.92265453125Q10.328289999999999,9.50894453125,9.5,9.50894453125Q8.671710000000001,9.50894453125,8.08595,8.92265453125Q7.5,8.33617453125,7.5,7.50666453125Q7.5,6.67716453125,8.08595,6.09068453125Z" fill-rule="evenodd" fill="#FFFFFF" fill-opacity="1"/></g></g></svg>