<svg xmlns="http://www.w3.org/2000/svg" xmlns:xlink="http://www.w3.org/1999/xlink" fill="none" version="1.1" width="20" height="20" viewBox="0 0 20 20"><defs><clipPath id="master_svg0_831_45584"><rect x="0" y="0" width="20" height="20" rx="0"/></clipPath></defs><g clip-path="url(#master_svg0_831_45584)"><g><path d="M10,1.25C5.16797,1.25,1.25,5.16797,1.25,10C1.25,14.832,5.16797,18.75,10,18.75C14.832,18.75,18.75,14.832,18.75,10C18.75,5.16797,14.832,1.25,10,1.25ZM10,17.2656C5.98828,17.2656,2.73438,14.0117,2.73438,10C2.73438,5.98828,5.98828,2.73438,10,2.73438C14.0117,2.73438,17.2656,5.98828,17.2656,10C17.2656,14.0117,14.0117,17.2656,10,17.2656Z" fill="#EA0000" fill-opacity="1"/></g><g><path d="M9.0625,13.4375C9.062500000000002,13.68614,9.1612719,13.9246,9.337087,14.10041C9.512903,14.27623,9.75136,14.375,10,14.375C10.24864,14.375,10.4871,14.27623,10.66291,14.10041C10.83873,13.9246,10.9375,13.68614,10.9375,13.4375C10.9375,13.18886,10.83873,12.9504,10.66291,12.77459C10.4871,12.59877,10.24864,12.5,10,12.5C9.75136,12.5,9.512903,12.59877,9.337087,12.77459C9.1612719,12.9504,9.062500000000002,13.18886,9.0625,13.4375C9.0625,13.4375,9.0625,13.4375,9.0625,13.4375ZM9.53125,11.25C9.53125,11.25,10.46875,11.25,10.46875,11.25C10.55469,11.25,10.625,11.17969,10.625,11.09375C10.625,11.09375,10.625,5.78125,10.625,5.78125C10.625,5.6953125,10.55469,5.625,10.46875,5.625C10.46875,5.625,9.53125,5.625,9.53125,5.625C9.445312,5.625,9.375,5.6953125,9.375,5.78125C9.375,5.78125,9.375,11.09375,9.375,11.09375C9.375,11.17969,9.445312,11.25,9.53125,11.25Z" fill="#EA0000" fill-opacity="1"/></g></g></svg>