<svg xmlns="http://www.w3.org/2000/svg" xmlns:xlink="http://www.w3.org/1999/xlink" fill="none" version="1.1" width="24" height="24" viewBox="0 0 24 24"><defs><clipPath id="master_svg0_831_27303"><rect x="0" y="0" width="24" height="24" rx="0"/></clipPath></defs><g clip-path="url(#master_svg0_831_27303)"><g><path d="M12,1.5C6.20156,1.5,1.5,6.20156,1.5,12C1.5,17.7984,6.20156,22.5,12,22.5C17.7984,22.5,22.5,17.7984,22.5,12C22.5,6.20156,17.7984,1.5,12,1.5ZM11.25,6.9375C11.25,6.83437,11.33438,6.75,11.4375,6.75C11.4375,6.75,12.5625,6.75,12.5625,6.75C12.6656,6.75,12.75,6.83437,12.75,6.9375C12.75,6.9375,12.75,13.3125,12.75,13.3125C12.75,13.4156,12.6656,13.5,12.5625,13.5C12.5625,13.5,11.4375,13.5,11.4375,13.5C11.33438,13.5,11.25,13.4156,11.25,13.3125C11.25,13.3125,11.25,6.9375,11.25,6.9375ZM12,17.25C11.7056,17.244,11.4253,17.122799999999998,11.21923,16.9125C11.01315,16.702199999999998,10.89773,16.4195,10.89773,16.125C10.89773,15.8305,11.01315,15.5478,11.21923,15.3375C11.4253,15.1272,11.7056,15.006,12,15C12.2944,15.006,12.5747,15.1272,12.7808,15.3375C12.9868,15.5478,13.1023,15.8305,13.1023,16.125C13.1023,16.4195,12.9868,16.702199999999998,12.7808,16.9125C12.5747,17.122799999999998,12.2944,17.244,12,17.25Z" fill="#F4BC00" fill-opacity="1"/></g></g></svg>