<svg xmlns="http://www.w3.org/2000/svg" xmlns:xlink="http://www.w3.org/1999/xlink" fill="none" version="1.1" width="20" height="20" viewBox="0 0 20 20"><defs><clipPath id="master_svg0_831_46211"><rect x="3.3333334922790527" y="3.3333334922790527" width="13.333333969116211" height="13.333333969116211" rx="0"/></clipPath></defs><g><g><ellipse cx="10" cy="10" rx="10" ry="10" fill="#AEC5FF" fill-opacity="1"/></g><g clip-path="url(#master_svg0_831_46211)"><g><path d="M14.928723492279053,13.168617867279053C14.928723492279053,13.168617867279053,10.337583492279052,6.839192867279053,10.337583492279052,6.839192867279053C10.170913492279052,6.610026167279052,9.829773492279053,6.610026167279052,9.664403492279053,6.839192867279053C9.664403492279053,6.839192867279053,5.071956392279053,13.168617867279053,5.071956392279053,13.168617867279053C5.060654722279053,13.184187867279054,5.053884472279052,13.202577867279054,5.052395886279053,13.221757867279052C5.050907302279053,13.240937867279053,5.054758582279053,13.260157867279052,5.063522892279053,13.277277867279054C5.0722871922790524,13.294397867279052,5.085622092279053,13.308767867279052,5.102049492279053,13.318767867279053C5.118476992279053,13.328777867279053,5.137355292279053,13.334047867279054,5.156591492279053,13.333987867279053C5.156591492279053,13.333987867279053,6.133153492279053,13.333987867279053,6.133153492279053,13.333987867279053C6.199563492279053,13.333987867279053,6.262063492279053,13.301437867279052,6.301123492279053,13.248047867279052C6.301123492279053,13.248047867279052,10.000343492279054,8.149087867279054,10.000343492279054,8.149087867279054C10.000343492279054,8.149087867279054,13.699563492279053,13.248047867279052,13.699563492279053,13.248047867279052C13.738623492279054,13.301437867279052,13.801123492279054,13.333987867279053,13.867533492279053,13.333987867279053C13.867533492279053,13.333987867279053,14.844093492279052,13.333987867279053,14.844093492279052,13.333987867279053C14.928723492279053,13.333987867279053,14.978203492279052,13.237627867279052,14.928723492279053,13.168617867279053C14.928723492279053,13.168617867279053,14.928723492279053,13.168617867279053,14.928723492279053,13.168617867279053Z" fill="#FFFFFF" fill-opacity="1"/></g></g></g></svg>