<svg xmlns="http://www.w3.org/2000/svg" xmlns:xlink="http://www.w3.org/1999/xlink" fill="none" version="1.1" width="42" height="42" viewBox="0 0 42 42"><defs><clipPath id="master_svg0_831_47689"><rect x="5.25" y="5.25" width="31.499998092651367" height="31.499998092651367" rx="0"/></clipPath><clipPath id="master_svg1_831_47692"><rect x="13" y="13" width="16" height="16" rx="0"/></clipPath></defs><g><g style="opacity:0.20000000298023224;"><ellipse cx="21" cy="21" rx="21" ry="21" fill="#4077FF" fill-opacity="1"/></g><g><ellipse cx="20.999999046325684" cy="20.999999046325684" rx="15.749999046325684" ry="15.749999046325684" fill="#A0BBFF" fill-opacity="1"/></g><g clip-path="url(#master_svg0_831_47689)"><g><path d="M21,6.5625C13.027149999999999,6.5625,6.5625,13.027149999999999,6.5625,21C6.5625,28.9729,13.027149999999999,35.4375,21,35.4375C28.9729,35.4375,35.4375,28.9729,35.4375,21C35.4375,13.027149999999999,28.9729,6.5625,21,6.5625ZM21,32.988299999999995C14.380659999999999,32.988299999999995,9.01172,27.6193,9.01172,21C9.01172,14.380659999999999,14.380659999999999,9.01172,21,9.01172C27.6193,9.01172,32.988299999999995,14.380659999999999,32.988299999999995,21C32.988299999999995,27.6193,27.6193,32.988299999999995,21,32.988299999999995Z" fill="#FFFFFF" fill-opacity="1"/></g><g clip-path="url(#master_svg1_831_47692)"><g><path d="M27.66659375,18.0344375C27.83559375,18.321437500000002,27.923593750000002,18.6424375,27.93359375,18.9984375L27.93359375,25.902437499999998C27.91559375,26.467437500000003,27.71959375,26.9364375,27.34559375,27.3104375C26.97159375,27.6844375,26.502593750000003,27.8804375,25.937593749999998,27.8984375L15.92959375,27.8984375C15.364593750000001,27.8804375,14.89459375,27.6844375,14.52159375,27.3104375C14.14759375,26.9364375,13.95159375,26.467437500000003,13.93359375,25.902437499999998L13.93359375,18.9984375C13.93359375,18.6434375,14.02459375,18.321437500000002,14.20659375,18.0344375C14.38859375,17.7474375,14.63059375,17.5034375,14.93159375,17.3034375L19.93559375,14.1994375C20.24559375,13.9994375,20.59359375,13.8984375,20.981593750000002,13.8984375C21.36859375,13.8984375,21.71759375,13.9984375,22.02759375,14.1994375L27.03159375,17.3034375C27.28559375,17.5034375,27.49759375,17.7474375,27.66659375,18.0344375ZM23.66059375,21.6234375C23.83859375,21.4414375,23.92759375,21.199437500000002,23.92759375,20.8984375C23.92759375,20.597437499999998,23.83859375,20.3564375,23.66059375,20.1734375C23.48259375,19.9914375,23.23859375,19.9004375,22.929593750000002,19.9004375L18.937593749999998,19.9004375C18.62759375,19.9004375,18.38359375,19.9914375,18.20659375,20.1734375C18.02859375,20.3554375,17.93959375,20.597437499999998,17.93959375,20.8984375C17.93959375,21.199437500000002,18.02859375,21.4404375,18.20659375,21.6234375C18.38459375,21.8054375,18.62759375,21.8964375,18.937593749999998,21.8964375L22.929593750000002,21.8964375C23.23859375,21.8964375,23.48259375,21.8054375,23.66059375,21.6234375ZM23.66059375,25.6224375C23.83859375,25.4444375,23.92759375,25.2034375,23.92759375,24.897437500000002C23.92759375,24.592437500000003,23.83859375,24.350437499999998,23.66059375,24.1724375C23.48259375,23.9944375,23.23859375,23.9014375,22.929593750000002,23.8924375L18.937593749999998,23.8924375C18.62759375,23.9014375,18.38359375,23.9954375,18.20659375,24.1724375C18.02959375,24.3494375,17.93959375,24.591437499999998,17.93959375,24.897437500000002C17.93959375,25.202437500000002,18.02859375,25.4444375,18.20659375,25.6224375C18.38459375,25.8004375,18.62759375,25.893437499999997,18.937593749999998,25.902437499999998L22.929593750000002,25.902437499999998C23.23859375,25.893437499999997,23.48259375,25.8004375,23.66059375,25.6224375Z" fill="#FFFFFF" fill-opacity="1"/></g></g></g></g></svg>