<svg xmlns="http://www.w3.org/2000/svg" xmlns:xlink="http://www.w3.org/1999/xlink" fill="none" version="1.1" width="42" height="42" viewBox="0 0 42 42"><defs><clipPath id="master_svg0_831_46183"><rect x="5.25" y="5.25" width="31.499998092651367" height="31.499998092651367" rx="0"/></clipPath><clipPath id="master_svg1_831_46186"><rect x="13" y="13" width="16" height="16" rx="0"/></clipPath></defs><g><g style="opacity:0.20000000298023224;"><ellipse cx="21" cy="21" rx="21" ry="21" fill="#4077FF" fill-opacity="1"/></g><g><ellipse cx="20.999999046325684" cy="20.999999046325684" rx="15.749999046325684" ry="15.749999046325684" fill="#A0BBFF" fill-opacity="1"/></g><g clip-path="url(#master_svg0_831_46183)"><g><path d="M21,6.5625C13.027149999999999,6.5625,6.5625,13.027149999999999,6.5625,21C6.5625,28.9729,13.027149999999999,35.4375,21,35.4375C28.9729,35.4375,35.4375,28.9729,35.4375,21C35.4375,13.027149999999999,28.9729,6.5625,21,6.5625ZM21,32.988299999999995C14.380659999999999,32.988299999999995,9.01172,27.6193,9.01172,21C9.01172,14.380659999999999,14.380659999999999,9.01172,21,9.01172C27.6193,9.01172,32.988299999999995,14.380659999999999,32.988299999999995,21C32.988299999999995,27.6193,27.6193,32.988299999999995,21,32.988299999999995Z" fill="#FFFFFF" fill-opacity="1"/></g><g clip-path="url(#master_svg1_831_46186)"><g><path d="M14.28961,26.0574L14.995535,26.0574C14.995535,27.128700000000002,15.83903,28,16.87619,28C17.91336,28,18.75685,27.128700000000002,18.75685,26.0574L22.592370000000003,26.0574C22.75166,26.0574,22.88198,25.922800000000002,22.88198,25.758200000000002L22.88198,15.299151C22.88198,15.134618,22.75166,15,22.592370000000003,15L14.28961,15C14.130325,15,14,15.134618,14,15.299151L14,25.758200000000002C14,25.922800000000002,14.130325,26.0574,14.28961,26.0574ZM16.87438,27.1493C16.29154,27.1493,15.8173,26.659399999999998,15.8173,26.0574C15.8173,25.4553,16.29154,24.96548,16.87438,24.96548C17.45722,24.96548,17.93146,25.4553,17.93146,26.0574C17.93327,26.659399999999998,17.45903,27.1493,16.87438,27.1493ZM28.9149,19.85373L27.5013,18.37106C27.447,18.3131,27.372799999999998,18.28132,27.2949,18.28132L23.84132,18.28132C23.682029999999997,18.28132,23.55171,18.41594,23.55171,18.58047L23.55171,25.7059C23.55171,25.8966,23.694699999999997,26.0574,23.906480000000002,26.0574L24.3373,26.0574C24.3373,27.128700000000002,25.180799999999998,28,26.2179,28C27.2551,28,28.098599999999998,27.128700000000002,28.098599999999998,26.0574L28.7104,26.0574C28.8697,26.0574,29,25.922800000000002,29,25.758200000000002L29,20.06501C28.9982,19.98648,28.9692,19.90982,28.9149,19.85373ZM24.855,19.35639L26.8696,19.35639C26.947400000000002,19.35639,27.0216,19.38818,27.0759,19.44614L27.9013,20.31181C27.9538,20.3679,27.9846,20.44269,27.9846,20.52121L27.9846,22.37034C27.9846,22.53488,27.8542,22.66949,27.6949,22.66949L24.855,22.66949C24.695700000000002,22.66949,24.5653,22.53488,24.5653,22.37034L24.5653,19.655540000000002C24.5653,19.49101,24.695700000000002,19.35639,24.855,19.35639ZM26.2179,27.1493C25.6351,27.1493,25.160899999999998,26.659399999999998,25.160899999999998,26.0574C25.160899999999998,25.4553,25.6351,24.96548,26.2179,24.96548C26.800800000000002,24.96548,27.275,25.4553,27.275,26.0574C27.275,26.659399999999998,26.800800000000002,27.1493,26.2179,27.1493Z" fill="#FFFFFF" fill-opacity="1"/></g></g></g></g></svg>