<svg xmlns="http://www.w3.org/2000/svg" xmlns:xlink="http://www.w3.org/1999/xlink" fill="none" version="1.1" width="42" height="42" viewBox="0 0 42 42"><defs><clipPath id="master_svg0_1042_7620"><rect x="5.25" y="5.25" width="31.499998092651367" height="31.499998092651367" rx="0"/></clipPath><clipPath id="master_svg1_1042_9839"><rect x="13" y="13" width="16" height="16" rx="0"/></clipPath></defs><g><g style="opacity:0.20000000298023224;"><ellipse cx="21" cy="21" rx="21" ry="21" fill="#EA0000" fill-opacity="1"/></g><g><ellipse cx="20.999999046325684" cy="20.999999046325684" rx="15.749999046325684" ry="15.749999046325684" fill="#EA0000" fill-opacity="1"/></g><g clip-path="url(#master_svg0_1042_7620)"><g><path d="M21,6.5625C13.027149999999999,6.5625,6.5625,13.027149999999999,6.5625,21C6.5625,28.9729,13.027149999999999,35.4375,21,35.4375C28.9729,35.4375,35.4375,28.9729,35.4375,21C35.4375,13.027149999999999,28.9729,6.5625,21,6.5625ZM21,32.988299999999995C14.380659999999999,32.988299999999995,9.01172,27.6193,9.01172,21C9.01172,14.380659999999999,14.380659999999999,9.01172,21,9.01172C27.6193,9.01172,32.988299999999995,14.380659999999999,32.988299999999995,21C32.988299999999995,27.6193,27.6193,32.988299999999995,21,32.988299999999995Z" fill="#FFFFFF" fill-opacity="1"/></g></g><g clip-path="url(#master_svg1_1042_9839)"><g><path d="M27.9842,15.5792L26.4377,14.032801L21.00852,19.46173L15.54651,14L14,15.54644L19.46201,21.00817L14.0164417,26.4535L15.56291,28L21.008499999999998,22.55461L26.4377,27.9837L27.9842,26.4371L22.55501,21.00817L27.9842,15.5792Z" fill="#FFFFFF" fill-opacity="1"/></g></g></g></svg>