<svg xmlns="http://www.w3.org/2000/svg" xmlns:xlink="http://www.w3.org/1999/xlink" fill="none" version="1.1" width="42" height="42" viewBox="0 0 42 42"><defs><clipPath id="master_svg0_831_47127"><rect x="5.25" y="5.25" width="31.499998092651367" height="31.499998092651367" rx="0"/></clipPath><clipPath id="master_svg1_831_47130"><rect x="13" y="13" width="16" height="16" rx="0"/></clipPath></defs><g><g><g style="opacity:0.20000000298023224;"><ellipse cx="21" cy="21" rx="21" ry="21" fill="#4077FF" fill-opacity="1"/></g><g><ellipse cx="20.999999046325684" cy="20.999999046325684" rx="15.749999046325684" ry="15.749999046325684" fill="#4077FF" fill-opacity="1"/></g><g clip-path="url(#master_svg0_831_47127)"><g><path d="M21,6.5625C13.027149999999999,6.5625,6.5625,13.027149999999999,6.5625,21C6.5625,28.9729,13.027149999999999,35.4375,21,35.4375C28.9729,35.4375,35.4375,28.9729,35.4375,21C35.4375,13.027149999999999,28.9729,6.5625,21,6.5625ZM21,32.988299999999995C14.380659999999999,32.988299999999995,9.01172,27.6193,9.01172,21C9.01172,14.380659999999999,14.380659999999999,9.01172,21,9.01172C27.6193,9.01172,32.988299999999995,14.380659999999999,32.988299999999995,21C32.988299999999995,27.6193,27.6193,32.988299999999995,21,32.988299999999995Z" fill="#FFFFFF" fill-opacity="1"/></g></g><g clip-path="url(#master_svg1_831_47130)"><g><path d="M27.985,15.0335C27.9833,14.464187,27.502499999999998,14,26.9148,14L18.233719999999998,14.0177911C17.64607,14.0194085,17.16694,14.485213,17.16694,15.05453L17.16694,15.24538L25.7446,15.24538C26.040100000000002,15.24538,26.2788,15.47666,26.2788,15.76294L26.2788,25.334600000000002C27.303800000000003,24.796,28.0033,23.74307,28,22.53812L27.985,15.0335ZM24.9449,16.28212L17.170279999999998,16.28212L17.170279999999998,16.28535L15.06678,16.2902C14.479132,16.29182,14,16.75762,14,17.32694L14.0200333,26.9665C14.0217027,27.535800000000002,14.502504,28,15.09015,28L21.73455,27.987099999999998C23.22203,27.983800000000002,24.817999999999998,27.0053,25.2087,25.682299999999998L25.2103,25.682299999999998L25.2103,16.5409C25.212,16.39695,25.0918,16.28212,24.9449,16.28212ZM16.14023,18.88124L19.64607,18.88124C20.08848,18.88124,20.447409999999998,19.22897,20.447409999999998,19.65758C20.447409999999998,20.08618,20.08848,20.43392,19.64607,20.43392L16.14023,20.43392C15.69783,20.43392,15.3389,20.08618,15.3389,19.65758C15.3389,19.22897,15.69783,18.88124,16.14023,18.88124ZM21.48246,23.40989L16.14023,23.40989C15.69783,23.40989,15.3389,23.062150000000003,15.3389,22.63355C15.3389,22.20494,15.69783,21.857210000000002,16.14023,21.857210000000002L21.48246,21.857210000000002C21.9232,21.857210000000002,22.2838,22.20494,22.2838,22.63355C22.2838,23.062150000000003,21.92487,23.40989,21.48246,23.40989Z" fill="#FFFFFF" fill-opacity="1"/></g></g></g></g></svg>