<svg xmlns="http://www.w3.org/2000/svg" xmlns:xlink="http://www.w3.org/1999/xlink" fill="none" version="1.1" width="42" height="42" viewBox="0 0 42 42"><defs><clipPath id="master_svg0_831_46093"><rect x="5.25" y="5.25" width="31.499998092651367" height="31.499998092651367" rx="0"/></clipPath></defs><g><g style="opacity:0.20000000298023224;"><ellipse cx="21" cy="21" rx="21" ry="21" fill="#4077FF" fill-opacity="1"/></g><g><ellipse cx="20.999999046325684" cy="20.999999046325684" rx="15.749999046325684" ry="15.749999046325684" fill="#4077FF" fill-opacity="1"/></g><g clip-path="url(#master_svg0_831_46093)"><g><path d="M26.1889,15.75C26.1889,15.75,24.7462,15.75,24.7462,15.75C24.43241,15.75,24.13402,15.900732,23.94945,16.15913C23.94945,16.15913,19.11369,22.86519,19.11369,22.86519C19.11369,22.86519,16.92344,19.82593,16.92344,19.82593C16.73887,19.57061,16.44356,19.4168,16.12671,19.4168C16.12671,19.4168,14.683984,19.4168,14.683984,19.4168C14.4840324,19.4168,14.3671374,19.64443,14.4840323,19.807470000000002C14.4840323,19.807470000000002,18.31696,25.1231,18.31696,25.1231C18.4075,25.24948,18.52687,25.352449999999997,18.66516,25.42349C18.803449999999998,25.494529999999997,18.95668,25.53159,19.11215,25.53159C19.26762,25.53159,19.42085,25.494529999999997,19.55914,25.42349C19.69743,25.352449999999997,19.81679,25.24948,19.907339999999998,25.1231C19.907339999999998,25.1231,26.3858,16.140674,26.3858,16.140674C26.5058,15.977637,26.3889,15.75,26.1889,15.75C26.1889,15.75,26.1889,15.75,26.1889,15.75Z" fill="#FFFFFF" fill-opacity="1"/></g><g><path d="M21,6.5625C13.027149999999999,6.5625,6.5625,13.027149999999999,6.5625,21C6.5625,28.9729,13.027149999999999,35.4375,21,35.4375C28.9729,35.4375,35.4375,28.9729,35.4375,21C35.4375,13.027149999999999,28.9729,6.5625,21,6.5625ZM21,32.988299999999995C14.380659999999999,32.988299999999995,9.01172,27.6193,9.01172,21C9.01172,14.380659999999999,14.380659999999999,9.01172,21,9.01172C27.6193,9.01172,32.988299999999995,14.380659999999999,32.988299999999995,21C32.988299999999995,27.6193,27.6193,32.988299999999995,21,32.988299999999995Z" fill="#FFFFFF" fill-opacity="1"/></g></g></g></svg>