<svg xmlns="http://www.w3.org/2000/svg" xmlns:xlink="http://www.w3.org/1999/xlink" fill="none" version="1.1" width="42" height="42" viewBox="0 0 42 42"><defs><clipPath id="master_svg0_1042_01362"><rect x="5.25" y="5.25" width="31.499998092651367" height="31.499998092651367" rx="0"/></clipPath><clipPath id="master_svg1_1042_01366"><rect x="13" y="13" width="16" height="16" rx="0"/></clipPath></defs><g><g style="opacity:0.20000000298023224;"><ellipse cx="21" cy="21" rx="21" ry="21" fill="#EA0000" fill-opacity="1"/></g><g><ellipse cx="20.999999046325684" cy="20.999999046325684" rx="15.749999046325684" ry="15.749999046325684" fill="#EA0000" fill-opacity="1"/></g><g clip-path="url(#master_svg0_1042_01362)"><g><path d="M21,6.5625C13.027149999999999,6.5625,6.5625,13.027149999999999,6.5625,21C6.5625,28.9729,13.027149999999999,35.4375,21,35.4375C28.9729,35.4375,35.4375,28.9729,35.4375,21C35.4375,13.027149999999999,28.9729,6.5625,21,6.5625ZM21,32.988299999999995C14.380659999999999,32.988299999999995,9.01172,27.6193,9.01172,21C9.01172,14.380659999999999,14.380659999999999,9.01172,21,9.01172C27.6193,9.01172,32.988299999999995,14.380659999999999,32.988299999999995,21C32.988299999999995,27.6193,27.6193,32.988299999999995,21,32.988299999999995Z" fill="#FFFFFF" fill-opacity="1"/></g></g><g clip-path="url(#master_svg1_1042_01366)"><g><path d="M29,19.4003221875L27.6,15.7336621875L14.4,15.7336621875L13,19.4003221875C13,20.5336621875,13.866667,21.4003221875,15,21.4003221875C16.13333,21.4003221875,17,20.5336621875,17,19.4003221875C17,20.1336621875,17.4,20.8003221875,18,21.1336621875C18.6,21.4669921875,19.4,21.4669921875,20,21.1336621875C20.6,20.8003221875,21,20.1336621875,21,19.4003221875C21,20.1336621875,21.33333,20.8003221875,22,21.2003221875C22.6,21.600322187499998,23.4,21.600322187499998,24,21.2003221875C24.6,20.8669921875,24.9333,20.2003221875,25,19.5336621875L25,19.4003221875L25,19.5336621875C25,20.2003221875,25.4,20.8669921875,26,21.2003221875C26.6,21.600322187499998,27.4,21.600322187499998,28.0667,21.2003221875C28.6667,20.8003221875,29,20.1336621875,29,19.4003221875ZM26.3333,15.0003221875L15.66667,15.0003221875C15.26667,15.0003221875,15,14.7336621875,15,14.3336591875C15,14.0003251875,15.26667,13.6669921278954,15.66667,13.6669921875L26.3333,13.6669921875C26.6667,13.6669921875,27,13.9336591875,27,14.3336591875C27,14.7336621875,26.7333,15.0003221875,26.3333,15.0003221875Z" fill="#FFFFFF" fill-opacity="1"/></g><g><path d="M21.6594375,22.387231875C21.3735175,22.153373875,21.1424375,21.841187875,20.9984375,21.466796875C20.6651075,22.266796875,19.8651075,22.866796875,18.9984375,22.866796875C18.1317675,22.866796875,17.3317675,22.333463875,16.9984375,21.466796875C16.6651075,22.266796875,15.8651075,22.866796875,14.9984375,22.866796875C14.7984375,22.866796875,14.5984375,22.866796875,14.3984375,22.800126875L14.3984375,27.333466875C14.3984375,27.733466875,14.8651045,28.266796875,15.2651045,28.266796875L22.3930975,28.266796875Q22.2072575,28.117946875,22.0392075,27.949266875Q21.8711575,27.780586875,21.7230075,27.594186875Q21.5748475,27.407796875,21.4484375,27.206016875Q21.3220375,27.004236875,21.218957500000002,26.789606875Q21.1158775,26.574966875,21.0374175,26.350166875Q20.9589575,26.125356875,20.9060975,25.893196875Q20.8532375,25.661036875,20.8266475,25.424426875Q20.800047499999998,25.187806875,20.800047499999998,24.949706875Q20.800047499999998,24.605146875,20.8555575,24.265076875Q20.9110575,23.925016875,21.0206175,23.598336875Q21.130177500000002,23.271656875,21.2909375,22.966886875Q21.4516875,22.662116875,21.6594375,22.387231875Z" fill-rule="evenodd" fill="#FFFFFF" fill-opacity="1"/></g><g><path d="M25.07737453125,21.35888671875C23.03505453125,21.35888671875,21.37939453125,23.01450671875,21.37939453125,25.05685671875C21.37939453125,27.09921671875,23.03505453125,28.75485671875,25.07737453125,28.75485671875C27.11971453125,28.75485671875,28.77537453125,27.09920671875,28.77537453125,25.05685671875C28.77538453125,23.01451671875,27.11971453125,21.35888671875,25.07737453125,21.35888671875ZM26.81426453125,26.80134671875C26.78602453125,26.829276718750002,26.74930453125,26.84339671875,26.71228453125,26.84339671875C26.67525453125,26.84339671875,26.63822453125,26.829276718750002,26.60966453125,26.80071671875L25.07736453125,25.26194671875L23.54847453125,26.79758671875C23.52023453125,26.82614671875,23.48289453125,26.84026671875,23.44585453125,26.84026671875C23.40882453125,26.84026671875,23.37211453125,26.82614671875,23.343874531250002,26.798216718749998C23.28738453125,26.74172671875,23.28707453125,26.65009671875,23.34325453125,26.59361671875L24.87317453125,25.05690671875L23.33978453125,23.51703671875C23.28361453125,23.46054671875,23.28393453125,23.36891671875,23.34041453125,23.31243671875C23.39689453125,23.25658671875,23.48789453125,23.25594671875,23.54501453125,23.31306671875L25.07731453125,24.85183671875L26.60620453125,23.31620671875C26.66269453125,23.25909671875,26.75432453125,23.25971671875,26.81080453125,23.31558671875C26.86729453125,23.37206671875,26.86760453125,23.46370671875,26.81142453125,23.52018671875L25.28151453125,25.05686671875L26.81489453125,26.59674671875C26.87106453125,26.65322671875,26.87074453125,26.74486671875,26.81426453125,26.80134671875Z" fill="#FFFFFF" fill-opacity="1"/></g></g></g></svg>