<svg xmlns="http://www.w3.org/2000/svg" xmlns:xlink="http://www.w3.org/1999/xlink" fill="none" version="1.1" width="42" height="42" viewBox="0 0 42 42"><defs><clipPath id="master_svg0_831_47063"><rect x="5.25" y="5.25" width="31.499998092651367" height="31.499998092651367" rx="0"/></clipPath><clipPath id="master_svg1_831_47066"><rect x="13" y="13" width="16" height="16" rx="0"/></clipPath></defs><g><g style="opacity:0.20000000298023224;"><ellipse cx="21" cy="21" rx="21" ry="21" fill="#4077FF" fill-opacity="1"/></g><g><ellipse cx="20.999999046325684" cy="20.999999046325684" rx="15.749999046325684" ry="15.749999046325684" fill="#4077FF" fill-opacity="1"/></g><g clip-path="url(#master_svg0_831_47063)"><g><path d="M21,6.5625C13.027149999999999,6.5625,6.5625,13.027149999999999,6.5625,21C6.5625,28.9729,13.027149999999999,35.4375,21,35.4375C28.9729,35.4375,35.4375,28.9729,35.4375,21C35.4375,13.027149999999999,28.9729,6.5625,21,6.5625ZM21,32.988299999999995C14.380659999999999,32.988299999999995,9.01172,27.6193,9.01172,21C9.01172,14.380659999999999,14.380659999999999,9.01172,21,9.01172C27.6193,9.01172,32.988299999999995,14.380659999999999,32.988299999999995,21C32.988299999999995,27.6193,27.6193,32.988299999999995,21,32.988299999999995Z" fill="#FFFFFF" fill-opacity="1"/></g><g clip-path="url(#master_svg1_831_47066)"><g><path d="M27.5984375,22.800126875C27.3984375,22.866796875,27.1984375,22.866796875,26.9984375,22.866796875C26.1317375,22.866796875,25.3317375,22.333463875,24.9984375,21.466796875C24.6651375,22.266796875,23.8651075,22.866796875,22.9984375,22.866796875C22.1317675,22.866796875,21.331767499999998,22.333463875,20.9984375,21.466796875C20.6651075,22.266796875,19.8651075,22.866796875,18.9984375,22.866796875C18.1317675,22.866796875,17.3317675,22.333463875,16.9984375,21.466796875C16.6651075,22.266796875,15.8651075,22.866796875,14.9984375,22.866796875C14.7984375,22.866796875,14.5984375,22.866796875,14.3984375,22.800126875L14.3984375,27.333466875C14.3984375,27.733466875,14.8651045,28.266796875,15.2651045,28.266796875L26.7984375,28.266796875C27.1984375,28.266796875,27.6651375,27.733466875,27.6651375,27.333466875L27.6651375,22.800126875L27.5984375,22.800126875Z" fill="#FFFFFF" fill-opacity="1"/></g><g><path d="M29,19.4003221875L27.6,15.7336621875L14.4,15.7336621875L13,19.4003221875C13,20.5336621875,13.866667,21.4003221875,15,21.4003221875C16.13333,21.4003221875,17,20.5336621875,17,19.4003221875C17,20.1336621875,17.4,20.8003221875,18,21.1336621875C18.6,21.4669921875,19.4,21.4669921875,20,21.1336621875C20.6,20.8003221875,21,20.1336621875,21,19.4003221875C21,20.1336621875,21.33333,20.8003221875,22,21.2003221875C22.6,21.600322187499998,23.4,21.600322187499998,24,21.2003221875C24.6,20.8669921875,24.9333,20.2003221875,25,19.5336621875L25,19.4003221875L25,19.5336621875C25,20.2003221875,25.4,20.8669921875,26,21.2003221875C26.6,21.600322187499998,27.4,21.600322187499998,28.0667,21.2003221875C28.6667,20.8003221875,29,20.1336621875,29,19.4003221875ZM26.3333,15.0003221875L15.66667,15.0003221875C15.26667,15.0003221875,15,14.7336621875,15,14.3336591875C15,14.0003251875,15.26667,13.6669921278954,15.66667,13.6669921875L26.3333,13.6669921875C26.6667,13.6669921875,27,13.9336591875,27,14.3336591875C27,14.7336621875,26.7333,15.0003221875,26.3333,15.0003221875Z" fill="#FFFFFF" fill-opacity="1"/></g></g></g></g></svg>