<svg xmlns="http://www.w3.org/2000/svg" xmlns:xlink="http://www.w3.org/1999/xlink" fill="none" version="1.1" width="33.33000183105469" height="33.33000183105469" viewBox="0 0 33.33000183105469 33.33000183105469"><defs><clipPath id="master_svg0_207_6957"><rect x="0" y="0" width="33.33000183105469" height="33.33000183105469" rx="0"/></clipPath><linearGradient x1="0.5" y1="0" x2="0.5" y2="1" id="master_svg1_23_0851"><stop offset="0%" stop-color="#606AFF" stop-opacity="1"/><stop offset="100%" stop-color="#212DD8" stop-opacity="1"/></linearGradient></defs><g clip-path="url(#master_svg0_207_6957)"><g><path d="M8.51421,22.0913C3.8286,17.7346,3.8286,10.63293,8.51421,6.27625C13.20037,1.90792,20.799,1.90792,25.4852,6.27625C30.1716,10.63306,30.1716,17.735599999999998,25.4852,22.0925L16.9997,30L8.51421,22.0913ZM16.9997,17.6251C18.9887,17.625999999999998,20.601599999999998,16.114800000000002,20.601599999999998,14.2502C20.601599999999998,12.38558,18.9887,10.87429,16.9997,10.8752C15.0121,10.87611,13.40133,12.38686,13.40133,14.2502C13.40133,16.113500000000002,15.0121,17.624200000000002,16.9997,17.6251Z" fill="url(#master_svg1_23_0851)" fill-opacity="1"/></g></g></svg>