<svg xmlns="http://www.w3.org/2000/svg" xmlns:xlink="http://www.w3.org/1999/xlink" fill="none" version="1.1" width="22.89208984375" height="28" viewBox="0 0 22.89208984375 28"><defs><clipPath id="master_svg0_3_6818"><rect x="0" y="0" width="22.89230728149414" height="24" rx="0"/></clipPath></defs><g><g clip-path="url(#master_svg0_3_6818)"><g><path d="M20.03071123046875,10.00000011920929C20.03071123046875,17.00000011920929,11.44612123046875,23.00000011920929,11.44612123046875,23.00000011920929C11.44612123046875,23.00000011920929,2.86151123046875,17.00000011920929,2.86151123046875,10.00000011920929C2.86151126439545,7.61305011920929,3.76595923046875,5.32387011920929,5.37589123046875,3.6360401192092895C6.98581123046875,1.9482111192092897,9.16934123046875,1.0000001192092884,11.44612123046875,1.0000001192092896C13.72291123046875,1.00000011920929,15.90641123046875,1.9482111192092897,17.516411230468748,3.6360401192092895C19.12631123046875,5.32387011920929,20.03071123046875,7.61305011920929,20.03071123046875,10.00000011920929Z" fill="#4077FF" fill-opacity="1"/></g><g><path d="M14.3076747265625,10Q14.3076747265625,10.14738,14.293894726562499,10.29405Q14.2801147265625,10.440719999999999,14.2526847265625,10.58527Q14.2252647265625,10.72982,14.1844547265625,10.87085Q14.1436447265625,11.011890000000001,14.0898447265625,11.14805Q14.0360547265625,11.28421,13.9697847265625,11.41419Q13.9035147265625,11.544170000000001,13.8254147265625,11.66671Q13.7473147265625,11.78925,13.658134726562501,11.903179999999999Q13.568954726562499,12.017109999999999,13.4695447265625,12.12132Q13.3701447265625,12.22553,13.2614747265625,12.31903Q13.1528047265625,12.41253,13.035914726562499,12.49441Q12.9190347265625,12.57629,12.795054726562501,12.64576Q12.6710747265625,12.71524,12.5411947265625,12.77164Q12.4113147265625,12.82804,12.2767947265625,12.87082Q12.1422647265625,12.913599999999999,12.0043947265625,12.94236Q11.8665147265625,12.97111,11.7266147265625,12.98555Q11.5867147265625,13,11.4461347265625,13Q11.3055547265625,13,11.1656547265625,12.98555Q11.0257547265625,12.97111,10.8878747265625,12.942350000000001Q10.7499947265625,12.913599999999999,10.6154747265625,12.87082Q10.4809447265625,12.82804,10.3510647265625,12.77164Q10.2211947265625,12.71524,10.0972147265625,12.64576Q9.9732347265625,12.57629,9.8563447265625,12.49441Q9.7394647265625,12.41253,9.6307947265625,12.31903Q9.5221237265625,12.22553,9.4227197265625,12.12132Q9.3233157265625,12.017109999999999,9.2341337265625,11.903179999999999Q9.1449517265625,11.78925,9.0668507265625,11.66671Q8.9887497265625,11.544170000000001,8.9224817265625,11.41419Q8.8562137265625,11.28421,8.8024167265625,11.14805Q8.7486197265625,11.011890000000001,8.7078117265625,10.87085Q8.6670038265625,10.72982,8.6395783265625,10.58527Q8.6121529265625,10.440719999999999,8.5983738265625,10.29405Q8.5845947265625,10.14738,8.5845947265625,10Q8.5845947265625,9.85262,8.5983738265625,9.70595Q8.6121529265625,9.559280000000001,8.6395783265625,9.41473Q8.6670038265625,9.27018,8.7078117265625,9.12915Q8.7486197265625,8.98811,8.8024167265625,8.85195Q8.8562137265625,8.71579,8.9224817265625,8.58581Q8.9887497265625,8.45583,9.0668507265625,8.33329Q9.1449517265625,8.21075,9.2341337265625,8.09682Q9.3233157265625,7.982893,9.4227197265625,7.87868Q9.5221237265625,7.774466,9.6307947265625,7.680969Q9.7394647265625,7.587471,9.8563447265625,7.505591Q9.9732347265625,7.423711,10.0972147265625,7.354236Q10.2211947265625,7.284761,10.3510647265625,7.228361Q10.4809447265625,7.171961,10.6154747265625,7.129179Q10.7499947265625,7.0863967,10.8878747265625,7.0576442Q11.0257547265625,7.0288916,11.1656547265625,7.0144458Q11.3055547265625,7,11.4461347265625,7Q11.5867147265625,7,11.7266147265625,7.0144458Q11.8665147265625,7.0288916,12.0043947265625,7.0576442Q12.1422647265625,7.0863967,12.2767947265625,7.129179Q12.4113147265625,7.171961,12.5411947265625,7.228361Q12.6710747265625,7.284761,12.795054726562501,7.354236Q12.9190347265625,7.423711,13.035914726562499,7.505591Q13.1528047265625,7.587471,13.2614747265625,7.680969Q13.3701447265625,7.774466,13.4695447265625,7.87868Q13.568954726562499,7.982893,13.658134726562501,8.09682Q13.7473147265625,8.21075,13.8254147265625,8.33329Q13.9035147265625,8.45583,13.9697847265625,8.58581Q14.0360547265625,8.71579,14.0898447265625,8.85195Q14.1436447265625,8.98811,14.1844547265625,9.12915Q14.2252647265625,9.27018,14.2526847265625,9.41473Q14.2801147265625,9.559280000000001,14.293894726562499,9.70595Q14.3076747265625,9.85262,14.3076747265625,10Z" fill="#FFFFFF" fill-opacity="1"/></g></g><g style="opacity:0.4000000059604645;"><ellipse cx="11.446093559265137" cy="26" rx="6.199999809265137" ry="2" fill="#4077FF" fill-opacity="1"/></g></g></svg>