<svg xmlns="http://www.w3.org/2000/svg" xmlns:xlink="http://www.w3.org/1999/xlink" fill="none" version="1.1" width="33.33333206176758" height="33.33333206176758" viewBox="0 0 33.33333206176758 33.33333206176758"><defs><clipPath id="master_svg0_207_6670"><rect x="0" y="0" width="33.33333206176758" height="33.33333206176758" rx="0"/></clipPath><linearGradient x1="0.5" y1="0" x2="0.5" y2="1" id="master_svg1_23_0851"><stop offset="0%" stop-color="#606AFF" stop-opacity="1"/><stop offset="100%" stop-color="#212DD8" stop-opacity="1"/></linearGradient></defs><g clip-path="url(#master_svg0_207_6670)"><g><path d="M30.55514375,26.42733203125Q30.55514375,26.99923203125,30.35624375,27.49593203125Q30.15744375,27.99273203125,29.79034375,28.36893203125Q29.42324375,28.74523203125,28.93374375,28.95603203125Q28.44424375,29.16673203125,27.86304375,29.16673203125L5.6530137499999995,29.16673203125Q5.071763750000001,29.16673203125,4.55169375,28.95603203125Q4.03162375,28.74523203125,3.63392775,28.36893203125Q3.23622775,27.99273203125,3.00678575,27.49593203125Q2.777343863965,26.99923203125,2.77734375,26.42733203125L2.77734375,11.40574203125Q2.77734375,10.261812031249999,3.58803875,9.464082031250001Q4.39873375,8.66634203125,5.56124375,8.66634203125L27.77124375,8.66634203125Q28.93374375,8.66634203125,29.74444375,9.464082031250001Q30.55514375,10.261812031249999,30.55514375,11.40574203125L30.55514375,15.49983203125L23.61064375,15.49983203125Q22.44814375,15.49983203125,21.63744375,16.28253203125Q20.82674375,17.065132031250002,20.82674375,18.20913203125Q20.85734375,18.99183203125,21.16334375,19.59383203125Q21.40804375,20.10563203125,21.97394375,20.52703203125Q22.53994375,20.94853203125,23.61064375,20.94853203125L30.55514375,20.94853203125L30.55514375,26.42733203125ZM26.39454375,7.28158203125L12.50568375,7.28158203125Q14.15764375,6.43869203125,15.62614375,5.65600203125Q16.91094375,4.9937320312499995,18.165243750000002,4.33146203125Q19.41954375,3.66918503125,20.12314375,3.30794503125Q21.19384375,2.73598093125,22.03514375,2.78113601125Q22.87644375,2.82629113125,23.45774375,3.06711803125Q24.13074375,3.3982550312499997,24.62024375,3.94011203125L26.39454375,7.28158203125ZM22.23404375,18.20913203125Q22.23404375,17.637132031249998,22.63174375,17.24583203125Q23.02944375,16.85443203125,23.61064375,16.85443203125Q24.19194375,16.85443203125,24.58964375,17.24583203125Q24.98734375,17.637132031249998,24.98734375,18.20913203125Q24.98734375,18.78103203125,24.58964375,19.18743203125Q24.19194375,19.59383203125,23.61064375,19.59383203125Q23.02944375,19.59383203125,22.63174375,19.18743203125Q22.23404375,18.78103203125,22.23404375,18.20913203125Z" fill="url(#master_svg1_23_0851)" fill-opacity="1"/></g></g></svg>