<svg xmlns="http://www.w3.org/2000/svg" xmlns:xlink="http://www.w3.org/1999/xlink" fill="none" version="1.1" width="33.33000183105469" height="33.33000183105469" viewBox="0 0 33.33000183105469 33.33000183105469"><defs><clipPath id="master_svg0_207_6973"><rect x="0" y="0" width="33.33000183105469" height="33.33000183105469" rx="0"/></clipPath><linearGradient x1="0.5" y1="0" x2="0.5" y2="1" id="master_svg1_23_0851"><stop offset="0%" stop-color="#606AFF" stop-opacity="1"/><stop offset="100%" stop-color="#212DD8" stop-opacity="1"/></linearGradient></defs><g clip-path="url(#master_svg0_207_6973)"><g><path d="M18.419059375,16.93790078125L18.419059375,10.444420781249999C18.419059375,9.51027078125,17.663959374999997,8.755140781249999,16.729759375,8.755140781249999C15.795559375,8.755140781249999,15.040459375,9.51027078125,15.040459375,10.444420781249999L15.040459375,18.88760078125L22.354159375,23.10920078125C23.164659375,23.57140078125,24.196459375,23.28820078125,24.655359375,22.47450078125C25.111059375,21.67050078125,24.837659375,20.65170078125,24.040259375,20.18300078125L18.419059375,16.93790078125ZM16.641859375,30.21780078125C9.181689375000001,30.21780078125,3.130859375,24.17030078125,3.130859375,16.70680078125C3.130859375,9.24337078125,9.181689375000001,3.19580078125,16.641859375,3.19580078125C24.102059375,3.19580078125,30.152859375,9.24337078125,30.152859375,16.70680078125C30.152859375,24.17030078125,24.105359375,30.21780078125,16.641859375,30.21780078125Z" fill="url(#master_svg1_23_0851)" fill-opacity="1"/></g></g></svg>