<svg xmlns="http://www.w3.org/2000/svg" xmlns:xlink="http://www.w3.org/1999/xlink" fill="none" version="1.1" width="24" height="24" viewBox="0 0 24 24"><defs><clipPath id="master_svg0_207_22370"><rect x="0" y="0" width="24" height="24" rx="0"/></clipPath></defs><g clip-path="url(#master_svg0_207_22370)"><g><path d="M14.3087,3.168177Q12.72899,2.5,11,2.5Q9.27101,2.499999,7.69126,3.168177Q6.16578,3.8134,4.98959,4.98959Q3.813401,6.16578,3.168177,7.69126Q2.5,9.27101,2.499999,11Q2.499999,12.72899,3.168177,14.3087Q3.813398,15.8342,4.98959,17.0104Q6.16578,18.1866,7.69126,18.8318Q9.27101,19.5,11,19.5Q12.72899,19.5,14.3087,18.8318Q15.8342,18.1866,17.0104,17.0104Q18.1866,15.8342,18.8318,14.3087Q19.5,12.72898,19.5,11Q19.5,9.271,18.8318,7.69126Q18.1866,6.16578,17.0104,4.98959Q15.8342,3.8134,14.3087,3.168177ZM5.6967,5.6967Q7.8934,3.5,11,3.499999Q14.1066,3.5,16.3033,5.6967Q18.5,7.89339,18.5,11Q18.5,14.1066,16.3033,16.3033Q14.1066,18.5,11,18.5Q7.89339,18.5,5.6967,16.3033Q3.5,14.1066,3.499999,11Q3.5,7.8934,5.6967,5.6967Z" fill-rule="evenodd" fill="#FFFFFF" fill-opacity="1"/></g><g><path d="M17.003612618530273,16.296505618530272L17.003552618530275,16.296446618530272Q16.933226618530274,16.226119618530273,16.841341618530272,16.188059618530275Q16.749455818530272,16.149999618530273,16.649999618530273,16.149999618530273Q16.550543418530275,16.149999618530273,16.458657618530275,16.188059618530275Q16.366772618530273,16.226119618530273,16.296446618530272,16.296446618530272Q16.226119618530273,16.366772618530273,16.188059618530275,16.458657618530275Q16.149999618530273,16.550543418530275,16.149999618530273,16.649999618530273Q16.149999618530273,16.749455818530272,16.188059618530275,16.841341618530272Q16.226119618530273,16.933226618530274,16.296446618530272,17.003552618530275L20.646449618530273,21.353549618530273Q20.71676961853027,21.423879618530272,20.808659618530275,21.461939618530273Q20.900539618530274,21.499999618530275,20.999999618530275,21.499999618530275Q21.099459618530275,21.499999618530275,21.19133961853027,21.461939618530273Q21.283229618530275,21.423879618530272,21.353549618530273,21.353549618530273Q21.423879618530272,21.283229618530275,21.461939618530273,21.19133961853027Q21.499999618530275,21.099459618530275,21.499999618530275,20.999999618530275Q21.499999618530275,20.900539618530274,21.461939618530273,20.808659618530275Q21.423879618530272,20.71676961853027,21.353549618530273,20.646449618530273L17.003612618530273,16.296505618530272Z" fill-rule="evenodd" fill="#FFFFFF" fill-opacity="1"/></g></g></svg>