<svg xmlns="http://www.w3.org/2000/svg" xmlns:xlink="http://www.w3.org/1999/xlink" fill="none" version="1.1" width="33.33333206176758" height="33.33333206176758" viewBox="0 0 33.33333206176758 33.33333206176758"><defs><clipPath id="master_svg0_207_6691"><rect x="0" y="0" width="33.33333206176758" height="33.33333206176758" rx="0"/></clipPath><linearGradient x1="0.5" y1="0" x2="0.5" y2="1" id="master_svg1_23_0851"><stop offset="0%" stop-color="#606AFF" stop-opacity="1"/><stop offset="100%" stop-color="#212DD8" stop-opacity="1"/></linearGradient></defs><g clip-path="url(#master_svg0_207_6691)"><g><path d="M33.194071875,15.1388240625L27.081471875,5.9653790625C26.916071875,5.7109150625,26.625171875,5.5560367055,26.311971875,5.5556640625L8.409821874999999,5.5556640625C8.096581875,5.5560369435,7.805691875,5.7109160625,7.640301875,5.9653790625L1.527728875,15.1388240625C1.301355375,15.4799940625,1.355879975,15.9262640625,1.658401875,16.2082640625L16.722071874999997,30.2982640625C17.072371875,30.6414640625,17.649371875,30.6414640625,17.999771875,30.2982640625L33.063371875,16.2082640625C33.365871874999996,15.9262640625,33.420471875,15.4799940625,33.194071875,15.1388240625ZM23.168571875,12.9374740625L11.553271875,12.9374740625C11.069821875,12.8966440625,10.699111875,12.509334062499999,10.699111875,12.0451340625C10.699111875,11.5809240625,11.069821875,11.1936140625,11.553271875,11.1527840625L23.168571875,11.1527840625C23.651971875,11.1936240625,24.022671875,11.5809240625,24.022671875,12.0451340625C24.022671875,12.509334062499999,23.651971875,12.8966440625,23.168571875,12.9374740625Z" fill="url(#master_svg1_23_0851)" fill-opacity="1"/></g></g></svg>