<svg xmlns="http://www.w3.org/2000/svg" xmlns:xlink="http://www.w3.org/1999/xlink" fill="none" version="1.1" width="52" height="52" viewBox="0 0 52 52"><defs><clipPath id="master_svg0_207_6566"><rect x="0" y="0" width="52" height="52" rx="0"/></clipPath></defs><g clip-path="url(#master_svg0_207_6566)"><g><path d="M37.75,18.85L37.75,22.75Q37.75,22.8114,37.756,22.872500000000002Q37.762,22.9336,37.774,22.9939Q37.786,23.0541,37.803799999999995,23.1129Q37.821600000000004,23.171599999999998,37.8451,23.2284Q37.8686,23.2851,37.8976,23.3393Q37.926500000000004,23.3934,37.9607,23.444499999999998Q37.9948,23.4955,38.033699999999996,23.543Q38.0727,23.5905,38.1161,23.6339Q38.1595,23.677300000000002,38.207,23.7163Q38.2545,23.755200000000002,38.305499999999995,23.7893Q38.3566,23.8235,38.4107,23.8524Q38.4649,23.8814,38.5216,23.904899999999998Q38.5784,23.9284,38.637100000000004,23.946199999999997Q38.6959,23.964,38.7561,23.976Q38.8164,23.988,38.8775,23.994Q38.9386,24,39,24Q39.0614,24,39.1225,23.994Q39.1836,23.988,39.2439,23.976Q39.3041,23.964,39.362899999999996,23.946199999999997Q39.4216,23.9284,39.478300000000004,23.904899999999998Q39.5351,23.8814,39.589200000000005,23.8524Q39.6434,23.8235,39.694500000000005,23.7893Q39.7455,23.755200000000002,39.793,23.7163Q39.8405,23.677300000000002,39.8839,23.6339Q39.9273,23.5905,39.966300000000004,23.543Q40.0052,23.4955,40.0393,23.444499999999998Q40.0734,23.3934,40.1024,23.3393Q40.131299999999996,23.2851,40.1548,23.2284Q40.1783,23.171599999999998,40.196200000000005,23.1129Q40.214,23.0541,40.226,22.9939Q40.238,22.9336,40.244,22.872500000000002Q40.25,22.8114,40.25,22.75L40.25,10.14431Q40.25,8.797693,39.2863,7.835752Q38.3238,6.875,36.978,6.875L13.40625,6.875Q11.38222,6.875,9.946993,8.278335Q8.5,9.69317,8.5,11.7L8.5,40.3Q8.5,42.3068,9.946995,43.7217Q11.38223,45.125,13.40625,45.125L24.375,45.125Q24.4897,45.125,24.6024,45.1041Q24.7093,45.0844,24.8112,45.0464Q24.9131,45.0085,25.0068,44.9535Q25.1006,44.8986,25.183500000000002,44.8283Q25.2664,44.758,25.335900000000002,44.6744Q25.4055,44.5909,25.4595,44.4966Q25.5136,44.4023,25.5505,44.3Q25.5875,44.1978,25.6062,44.0908Q25.625,43.9837,25.625,43.875Q25.625,43.8136,25.619,43.7525Q25.613,43.6914,25.601,43.6311Q25.589,43.5709,25.571199999999997,43.5121Q25.5533,43.4534,25.5298,43.3966Q25.5063,43.3399,25.4774,43.2858Q25.4485,43.2316,25.4143,43.1805Q25.380200000000002,43.1295,25.3413,43.082Q25.302300000000002,43.0345,25.2589,42.9911Q25.2155,42.9477,25.168,42.9087Q25.1205,42.8698,25.069499999999998,42.8357Q25.0184,42.8015,24.964199999999998,42.7726Q24.9101,42.7436,24.8533,42.7201Q24.796599999999998,42.6966,24.7379,42.6788Q24.6791,42.661,24.6189,42.649Q24.5586,42.637,24.497500000000002,42.631Q24.4364,42.625,24.375,42.625L13.40625,42.625Q12.40135,42.625,11.69479,41.9341Q11,41.2548,11,40.3L11,11.7Q11,10.7452,11.69479,10.06585Q12.40134,9.375,13.40625,9.375L36.978,9.375Q37.2896,9.375,37.5201,9.605129999999999Q37.75,9.83456,37.75,10.14431L37.75,18.85Z" fill-rule="evenodd" fill="#606AFF" fill-opacity="1"/></g><g><path d="M27.625,23.125L17.875,23.125Q17.8135914,23.125,17.752479,23.13102Q17.691366,23.13704,17.631137,23.14902Q17.570909,23.161,17.512144,23.17882Q17.45338,23.196649999999998,17.396646,23.22015Q17.339911999999998,23.24365,17.285754,23.2726Q17.231597,23.30155,17.180537,23.33566Q17.129478,23.36978,17.082008,23.408737Q17.034539,23.447694,16.991117,23.491117Q16.947694,23.534539,16.908737,23.582008Q16.86978,23.629478,16.83566,23.680537Q16.80155,23.731597,16.7726,23.785754Q16.74365,23.839911999999998,16.72015,23.896646Q16.696649999999998,23.95338,16.67882,24.012144Q16.661,24.070909,16.64902,24.131137Q16.63704,24.191366,16.63102,24.252479Q16.625,24.3135914,16.625,24.375Q16.625,24.4364086,16.63102,24.497521Q16.63704,24.558634,16.64902,24.618863Q16.661,24.679091,16.67882,24.737856Q16.696649999999998,24.79662,16.72015,24.853354Q16.74365,24.910088000000002,16.7726,24.964246Q16.80155,25.018403,16.83566,25.069463Q16.86978,25.120522,16.908737,25.167992Q16.947694,25.215461,16.991117,25.258883Q17.034539,25.302306,17.082008,25.341263Q17.129478,25.38022,17.180537,25.41434Q17.231597,25.44845,17.285754,25.4774Q17.339911999999998,25.50635,17.396646,25.52985Q17.45338,25.553350000000002,17.512144,25.57118Q17.570909,25.589,17.631137,25.60098Q17.691366,25.61296,17.752479,25.61898Q17.8135914,25.625,17.875,25.625L27.625,25.625Q27.686410000000002,25.625,27.74752,25.61898Q27.80863,25.61296,27.868859999999998,25.60098Q27.9291,25.589,27.9879,25.57118Q28.046599999999998,25.553350000000002,28.1034,25.52985Q28.1601,25.50635,28.214199999999998,25.4774Q28.2684,25.44845,28.319499999999998,25.41434Q28.3705,25.38022,28.418,25.341263Q28.4655,25.302306,28.5089,25.258883Q28.552300000000002,25.215461,28.5913,25.167992Q28.630200000000002,25.120522,28.6643,25.069463Q28.6985,25.018403,28.7274,24.964246Q28.7563,24.910088000000002,28.7798,24.853354Q28.8033,24.79662,28.821199999999997,24.737856Q28.839,24.679091,28.851,24.618863Q28.863,24.558634,28.869,24.497521Q28.875,24.4364086,28.875,24.375Q28.875,24.3135914,28.869,24.252479Q28.863,24.191366,28.851,24.131137Q28.839,24.070909,28.821199999999997,24.012144Q28.8033,23.95338,28.7798,23.896646Q28.7563,23.839911999999998,28.7274,23.785754Q28.6985,23.731597,28.6643,23.680537Q28.630200000000002,23.629478,28.5913,23.582008Q28.552300000000002,23.534539,28.5089,23.491117Q28.4655,23.447694,28.418,23.408737Q28.3705,23.36978,28.319499999999998,23.33566Q28.2684,23.30155,28.214199999999998,23.2726Q28.1601,23.24365,28.1034,23.22015Q28.046599999999998,23.196649999999998,27.9879,23.17882Q27.9291,23.161,27.868859999999998,23.14902Q27.80863,23.13704,27.74752,23.13102Q27.686410000000002,23.125,27.625,23.125Z" fill-rule="evenodd" fill="#606AFF" fill-opacity="1"/></g><g><path d="M21.9375,32.875L17.875,32.875Q17.8135914,32.875,17.752479,32.88102Q17.691366,32.88704,17.631137,32.89902Q17.570909,32.911,17.512144,32.92882Q17.45338,32.94665,17.396646,32.97015Q17.339911999999998,32.99365,17.285754,33.0226Q17.231597,33.05155,17.180537,33.08566Q17.129478,33.11978,17.082008,33.158737Q17.034539,33.197694,16.991117,33.241117Q16.947694,33.284539,16.908737,33.332008Q16.86978,33.379478,16.83566,33.430537Q16.80155,33.481597,16.7726,33.535754Q16.74365,33.589912,16.72015,33.646646Q16.696649999999998,33.70338,16.67882,33.762144Q16.661,33.820909,16.64902,33.881137Q16.63704,33.941366,16.63102,34.002479Q16.625,34.0635914,16.625,34.125Q16.625,34.1864086,16.63102,34.247521Q16.63704,34.308634,16.64902,34.368863Q16.661,34.429091,16.67882,34.487856Q16.696649999999998,34.54662,16.72015,34.603354Q16.74365,34.660088,16.7726,34.714246Q16.80155,34.768403,16.83566,34.819463Q16.86978,34.870522,16.908737,34.917992Q16.947694,34.965461,16.991117,35.008883Q17.034539,35.052306,17.082008,35.091263Q17.129478,35.13022,17.180537,35.16434Q17.231597,35.19845,17.285754,35.2274Q17.339911999999998,35.25635,17.396646,35.27985Q17.45338,35.30335,17.512144,35.32118Q17.570909,35.339,17.631137,35.35098Q17.691366,35.36296,17.752479,35.36898Q17.8135914,35.375,17.875,35.375L21.9375,35.375Q21.998910000000002,35.375,22.06002,35.36898Q22.12113,35.36296,22.181359999999998,35.35098Q22.241590000000002,35.339,22.30036,35.32118Q22.35912,35.30335,22.41585,35.27985Q22.47259,35.25635,22.52675,35.2274Q22.5809,35.19845,22.63196,35.16434Q22.68302,35.13022,22.73049,35.091263Q22.77796,35.052306,22.82138,35.008883Q22.86481,34.965461,22.90376,34.917992Q22.94272,34.870522,22.97684,34.819463Q23.01095,34.768403,23.0399,34.714246Q23.06885,34.660088,23.09235,34.603354Q23.115850000000002,34.54662,23.13368,34.487856Q23.1515,34.429091,23.16348,34.368863Q23.17546,34.308634,23.18148,34.247521Q23.1875,34.1864086,23.1875,34.125Q23.1875,34.0635914,23.18148,34.002479Q23.17546,33.941366,23.16348,33.881137Q23.1515,33.820909,23.13368,33.762144Q23.115850000000002,33.70338,23.09235,33.646646Q23.06885,33.589912,23.0399,33.535754Q23.01095,33.481597,22.97684,33.430537Q22.94272,33.379478,22.90376,33.332008Q22.86481,33.284539,22.82138,33.241117Q22.77796,33.197694,22.73049,33.158737Q22.68302,33.11978,22.63196,33.08566Q22.5809,33.05155,22.52675,33.0226Q22.47259,32.99365,22.41585,32.97015Q22.35912,32.94665,22.30036,32.92882Q22.241590000000002,32.911,22.181359999999998,32.89902Q22.12113,32.88704,22.06002,32.88102Q21.998910000000002,32.875,21.9375,32.875Z" fill-rule="evenodd" fill="#606AFF" fill-opacity="1"/></g><g><path d="M25.1875,15L17.875,15Q17.8135914,15,17.752479,15.00602Q17.691366,15.01204,17.631137,15.02402Q17.570909,15.036,17.512144,15.05382Q17.45338,15.07165,17.396646,15.09515Q17.339911999999998,15.11865,17.285754,15.1476Q17.231597,15.17655,17.180537,15.21066Q17.129478,15.24478,17.082008,15.283737Q17.034539,15.322694,16.991117,15.366117Q16.947694,15.409539,16.908737,15.457008Q16.86978,15.504478,16.83566,15.555537Q16.80155,15.606597,16.7726,15.660754Q16.74365,15.714912,16.72015,15.771646Q16.696649999999998,15.82838,16.67882,15.887144Q16.661,15.945909,16.64902,16.006137Q16.63704,16.066366,16.63102,16.127479Q16.625,16.1885914,16.625,16.25Q16.625,16.3114086,16.63102,16.372521Q16.63704,16.433634,16.64902,16.493863Q16.661,16.554091,16.67882,16.612856Q16.696649999999998,16.67162,16.72015,16.728354Q16.74365,16.785088000000002,16.7726,16.839246Q16.80155,16.893403,16.83566,16.944463Q16.86978,16.995522,16.908737,17.042992Q16.947694,17.090461,16.991117,17.133883Q17.034539,17.177306,17.082008,17.216263Q17.129478,17.25522,17.180537,17.28934Q17.231597,17.32345,17.285754,17.3524Q17.339911999999998,17.38135,17.396646,17.40485Q17.45338,17.428350000000002,17.512144,17.44618Q17.570909,17.464,17.631137,17.47598Q17.691366,17.48796,17.752479,17.49398Q17.8135914,17.5,17.875,17.5L32.5,17.5Q32.5614,17.5,32.6225,17.49398Q32.6836,17.48796,32.7439,17.47598Q32.8041,17.464,32.862899999999996,17.44618Q32.9216,17.428350000000002,32.9784,17.40485Q33.0351,17.38135,33.0892,17.3524Q33.1434,17.32345,33.1945,17.28934Q33.2455,17.25522,33.293,17.216263Q33.3405,17.177306,33.3839,17.133883Q33.4273,17.090461,33.466300000000004,17.042992Q33.5052,16.995522,33.5393,16.944463Q33.573499999999996,16.893403,33.6024,16.839246Q33.631299999999996,16.785088000000002,33.6548,16.728354Q33.6783,16.67162,33.6962,16.612856Q33.714,16.554091,33.726,16.493863Q33.738,16.433634,33.744,16.372521Q33.75,16.3114086,33.75,16.25Q33.75,16.1885914,33.744,16.127479Q33.738,16.066366,33.726,16.006137Q33.714,15.945909,33.6962,15.887144Q33.6783,15.82838,33.6548,15.771646Q33.631299999999996,15.714912,33.6024,15.660754Q33.573499999999996,15.606597,33.5393,15.555537Q33.5052,15.504478,33.466300000000004,15.457008Q33.4273,15.409539,33.3839,15.366117Q33.3405,15.322694,33.293,15.283737Q33.2455,15.24478,33.1945,15.21066Q33.1434,15.17655,33.0892,15.1476Q33.0351,15.11865,32.9784,15.09515Q32.9216,15.07165,32.862899999999996,15.05382Q32.8041,15.036,32.7439,15.02402Q32.6836,15.01204,32.6225,15.00602Q32.5614,15,32.5,15L25.1875,15Z" fill-rule="evenodd" fill="#606AFF" fill-opacity="1"/></g><g><path d="M36.6458,27.048397Q35.05371,26.375,33.3125,26.375Q31.57129,26.375,29.9792,27.048398Q28.44237,27.6984218,27.2579,28.8829Q26.0734205,30.06738,25.423397,31.6042Q24.75,33.19629,24.75,34.9375Q24.75,36.6787,25.423398,38.2708Q26.0734219,39.8076,27.2579,40.9921Q28.44238,42.1766,29.9792,42.8266Q31.57129,43.5,33.3125,43.5Q35.05371,43.5,36.6458,42.8266Q38.1826,42.1766,39.3671,40.9921Q40.5516,39.8076,41.2016,38.2708Q41.875,36.67871,41.875,34.9375Q41.875,33.19629,41.2016,31.6042Q40.5516,30.06738,39.3671,28.8829Q38.1826,27.6984202,36.6458,27.048397ZM29.025669999999998,30.650669999999998Q30.80133,28.875,33.3125,28.875Q35.82367,28.875,37.5993,30.650669999999998Q39.375,32.42633,39.375,34.9375Q39.375,37.44867,37.5993,39.2243Q35.82367,41,33.3125,41Q30.80133,41,29.025669999999998,39.2243Q27.25,37.44867,27.25,34.9375Q27.25,32.42633,29.025669999999998,30.650669999999998Z" fill-rule="evenodd" fill="#EAB607" fill-opacity="1"/></g><g><path d="M43.13388,43.80362L39.071383,39.741117Q38.984329,39.654062,38.881963,39.58566Q38.779597,39.51726,38.665854,39.47015Q38.552112,39.42304,38.431363,39.39902Q38.310614,39.375,38.1875,39.375Q38.064386,39.375,37.943637,39.39902Q37.822888,39.42304,37.709146,39.47015Q37.595403,39.51726,37.493037,39.58566Q37.390671,39.654062,37.303617,39.741117Q37.216562,39.828171,37.14816,39.930537Q37.07976,40.032903,37.03265,40.146646Q36.98554,40.260388,36.96152,40.381137Q36.9375,40.501886,36.9375,40.625Q36.9375,40.748114,36.96152,40.868863Q36.98554,40.989612,37.03265,41.103354Q37.07976,41.217097,37.14816,41.319463Q37.216562,41.421829,37.303617,41.508883L41.36612,45.57138Q41.45317,45.65844,41.55554,45.72684Q41.6579,45.79524,41.77165,45.842349999999996Q41.88539,45.88946,42.00614,45.91348Q42.12689,45.9375,42.25,45.9375Q42.37311,45.9375,42.49386,45.91348Q42.61461,45.88946,42.72835,45.842349999999996Q42.8421,45.79524,42.94446,45.72684Q43.04683,45.65844,43.13388,45.57138Q43.22094,45.48433,43.28934,45.38196Q43.35774,45.2796,43.404849999999996,45.16585Q43.45196,45.05211,43.47598,44.93136Q43.5,44.81061,43.5,44.6875Q43.5,44.56439,43.47598,44.44364Q43.45196,44.32289,43.404849999999996,44.20915Q43.35774,44.0954,43.28934,43.99304Q43.22094,43.89067,43.13388,43.80362Z" fill-rule="evenodd" fill="#EAB607" fill-opacity="1"/></g></g></svg>