<svg xmlns="http://www.w3.org/2000/svg" xmlns:xlink="http://www.w3.org/1999/xlink" fill="none" version="1.1" width="40" height="40" viewBox="0 0 40 40"><defs><clipPath id="master_svg0_207_6834"><rect x="0" y="0" width="40" height="40" rx="0"/></clipPath><linearGradient x1="0.5" y1="0" x2="0.5" y2="1" id="master_svg1_23_0851"><stop offset="0%" stop-color="#606AFF" stop-opacity="1"/><stop offset="100%" stop-color="#212DD8" stop-opacity="1"/></linearGradient></defs><g clip-path="url(#master_svg0_207_6834)"><g><path d="M36.5187265625,25.41357421875L2.9718295625,25.41357421875C2.5538615625,25.41357421875,2.2530797625,25.81587421875,2.3702672625,26.21827421875L4.1437065625,32.22607421875C4.2218265625,32.49167421875,4.467926562500001,32.675274218750005,4.7452665624999995,32.675274218750005L31.4327265625,32.675274218750005C31.6163265625,32.675274218750005,31.7921265625,32.59327421875,31.9132265625,32.452674218750005L36.9952265625,26.44877421875C37.3429265625,26.03857421875,37.0538265625,25.41357421875,36.5187265625,25.41357421875ZM4.9171465625,24.06197421875L31.0656265625,24.06197421875C31.4132265625,24.06197421875,31.6945265625,23.78077421875,31.6945265625,23.43307421875L31.6945265625,20.17917421875C31.6945265625,19.83157421875,31.4132265625,19.550274218749998,31.0656265625,19.550274218749998L29.6515265625,19.550274218749998L29.6515265625,7.97216821875C29.6515265625,7.62841721875,29.3741265625,7.35107421875,29.0304265625,7.35107421875L27.5265265625,7.35107421875C27.1827265625,7.35107421875,26.9054265625,7.62841821875,26.9054265625,7.97216821875L26.9054265625,19.550274218749998L25.2023265625,19.550274218749998L25.2023265625,7.97216821875C25.2023265625,7.62841721875,24.9249265625,7.35107421875,24.5812265625,7.35107421875L23.0695265625,7.35107421875C22.7257265625,7.35107421875,22.4484265625,7.62841821875,22.4484265625,7.97216821875L22.4484265625,19.550274218749998L21.0695265625,19.550274218749998L21.0695265625,15.66748421875C21.0695265625,15.31982421875,20.7882265625,15.03857421875,20.4406265625,15.03857421875L4.9171465625,15.03857421875C4.5694865625,15.03857421875,4.2882365625,15.31982421875,4.2882365625,15.66748421875L4.2882365625,23.42917421875C4.2882365625,23.78077421875,4.5694865625,24.06197421875,4.9171465625,24.06197421875ZM12.5499265625,18.612774218749998C12.5499265625,18.265174218749998,12.8312265625,17.98387421875,13.1788265625,17.98387421875L14.6710265625,17.98387421875C15.0187265625,17.98387421875,15.2999265625,18.265174218749998,15.2999265625,18.612774218749998L15.2999265625,20.10497421875C15.2999265625,20.452674218749998,15.0187265625,20.73387421875,14.6710265625,20.73387421875L13.1788265625,20.73387421875C12.8312265625,20.73387421875,12.5499265625,20.452674218749998,12.5499265625,20.10497421875L12.5499265625,18.612774218749998ZM7.2843265625,18.612774218749998C7.2843265625,18.265174218749998,7.5655765625,17.98387421875,7.9132365625,17.98387421875L9.4054265625,17.98387421875C9.7530765625,17.98387421875,10.0343265625,18.265174218749998,10.0343265625,18.612774218749998L10.0343265625,20.10497421875C10.0343265625,20.452674218749998,9.7530765625,20.73387421875,9.4054265625,20.73387421875L7.9132365625,20.73387421875C7.5655765625,20.73387421875,7.2843265625,20.452674218749998,7.2843265625,20.10497421875L7.2843265625,18.612774218749998Z" fill="url(#master_svg1_23_0851)" fill-opacity="1"/></g></g></svg>