<svg xmlns="http://www.w3.org/2000/svg" xmlns:xlink="http://www.w3.org/1999/xlink" fill="none" version="1.1" width="35" height="23" viewBox="0 0 35 23"><defs><clipPath id="master_svg0_207_6752"><rect x="0" y="0" width="35" height="23" rx="0"/></clipPath><linearGradient x1="0.5" y1="0" x2="0.5" y2="1" id="master_svg1_23_0851"><stop offset="0%" stop-color="#606AFF" stop-opacity="1"/><stop offset="100%" stop-color="#212DD8" stop-opacity="1"/></linearGradient></defs><g clip-path="url(#master_svg0_207_6752)"><g><path d="M22.0436375,15.029471875L23.6473375,13.466871875C23.8903375,13.232071875,23.6280375,12.830571875,23.3205375,12.965071875C21.2651375,13.857171875,19.4101375,14.620371875,18.5863375,14.839971875L16.0517375,15.522971875L12.2711375,22.057771875C12.0281375,22.478071875,12.3816375,22.994471875,12.8491375,22.913671875L14.5057375,22.639771875C14.8167375,22.585371875,15.1098375,22.501071875,15.3755375,22.362371875C15.9947375,22.045871875,17.1920375,20.510471875,18.2671375,19.129771875C18.5863375,18.577071875,21.0002375,16.365571875,22.0436375,15.029471875ZM4.6227075,15.831771875C4.1517575,16.584471875,4.7977675,17.617371875,5.9298275,17.146871875L18.3165375,13.802871875C20.2463375,13.282171875,28.9053375,9.308791875,30.6909375,8.390881875C31.4392375,8.078641875,35.2472375,6.114571875,34.6465375,4.915091875C34.1948375,3.997181875,32.9440375,4.128211875,31.4399375,3.993001875C30.2769375,3.893331875,29.0652375,3.576911875,28.2332375,3.800641875C26.1166375,4.363791875,23.9514375,5.161821875,21.7889375,6.103421875L16.6490375,4.540821875L17.2339375,4.286421875C17.9234375,3.987251875,18.2446375,3.178051875,17.9520375,2.477091875C17.6599375,1.774721875,16.8607375,1.447671875,16.170537500000002,1.748061875L12.8910375,3.167791875L6.1879575,0.286514875C5.6071675,0.039787975,5.0140175,0.000060774999999999024,4.4222475,0.220999875L2.2178575,1.038545875C2.0813175,1.083211875,1.9815975,1.202701875,1.9606175,1.346781875C1.9396375,1.490851875,2.0010375,1.634521875,2.1189975,1.717391875L14.0416375,10.025971875C12.4559375,10.921271875,10.8865375,11.846071875,9.3342275,12.799871875L2.7231275,11.299371875C2.2225574999999997,11.182371875,1.6996075,11.211871875,1.2148655000000002,11.384371875L0.6560455000000001,11.576771875C0.5246185,11.621271875,0.4278492,11.735371875,0.40404924,11.873971875C0.3802492,12.012571875,0.4332564,12.153171875,0.5420855,12.240271875L4.6227075,15.831771875Z" fill="url(#master_svg1_23_0851)" fill-opacity="1"/></g></g></svg>