<svg xmlns="http://www.w3.org/2000/svg" xmlns:xlink="http://www.w3.org/1999/xlink" fill="none" version="1.1" width="40" height="40" viewBox="0 0 40 40"><defs><clipPath id="master_svg0_207_6797"><rect x="0" y="0" width="40" height="40" rx="0"/></clipPath><mask id="master_svg1_207_6804"><g><path d="M16.30078125 25C16.30078125 23.895430500338414 17.196211750338414 23 18.30078125 23L22.30078125 23C23.405350749661586 23 24.30078125 23.895430500338414 24.30078125 25L24.30078125 34C24.30078125 34 24.30078125 34 24.30078125 34L16.30078125 34C16.30078125 34 16.30078125 34 16.30078125 34Z" fill="#FFFFFF" fill-opacity="1"/></g></mask></defs><g clip-path="url(#master_svg0_207_6797)"><g><path d="M8,18.200204344940186L6.58124,19.213604344940187Q6.45404,19.304404344940185,6.30518,19.352204344940183Q6.15632,19.399904344940186,6,19.399904344940186Q5.901509,19.399904344940186,5.80491,19.380604344940185Q5.708311,19.361404344940183,5.617316,19.323704344940186Q5.526322,19.286004344940185,5.44443,19.231304344940185Q5.362537,19.176604344940188,5.292893,19.107004344940187Q5.223249,19.037304344940186,5.16853,18.955404344940185Q5.113811,18.873504344940187,5.0761205,18.782504344940186Q5.0384294,18.691504344940185,5.0192147,18.594904344940186Q5,18.498404344940184,5,18.399904344940186Q5,18.280504344940184,5.028103,18.164504344940184Q5.056206,18.048404344940188,5.110832,17.942304344940183Q5.165459,17.836104344940185,5.243538,17.745804344940186Q5.321618,17.655504344940184,5.418762,17.586104344940185L8.82671,15.151874344940186L9.006260000000001,15.011114344940186L18.0345,7.932953344940185C19.4837,6.7968103449401855,21.518,6.798172344940186,22.9672,7.9343153449401855L32.9966,15.797384344940186L35.081199999999995,17.286404344940188C35.344,17.474104344940187,35.5,17.777204344940188,35.5,18.100104344940185C35.5,18.652404344940187,35.0523,19.100104344940185,34.5,19.100104344940185C34.2916,19.100104344940185,34.0884,19.035004344940184,33.918800000000005,18.913804344940186L33,18.257604344940184L33,31.200004344940186C33,31.942604344940186,32.707300000000004,32.65480434494019,32.1864,33.179904344940184C31.6655,33.705004344940185,30.9589,34.00000434494019,30.2222,34.00000434494019L10.77778,34.00000434494019C10.041070000000001,34.00000434494019,9.33453,33.705004344940185,8.81359,33.179904344940184C8.29266,32.65480434494019,8,31.942604344940186,8,31.200004344940186L8,18.200204344940186Z" fill-rule="evenodd" fill="#4D57F3" fill-opacity="1"/></g><g style="opacity:0.800000011920929;"><path d="M16.30078125 25C16.30078125 23.895430500338414 17.196211750338414 23 18.30078125 23L22.30078125 23C23.405350749661586 23 24.30078125 23.895430500338414 24.30078125 25L24.30078125 34C24.30078125 34 24.30078125 34 24.30078125 34L16.30078125 34C16.30078125 34 16.30078125 34 16.30078125 34Z" fill="#FFFFFF" fill-opacity="1"/></g><g mask="url(#master_svg1_207_6804)"><g style="opacity:0.800000011920929;"><path d="M15,32.5L25.5,30.5L25.5,21.5L22.5,22L15,29.5L15,32.5Z" fill="#FFFFFF" fill-opacity="1"/></g><g style="opacity:0.4000000059604645;"><path d="M15,34L25.5,32L25.5,23L22.5,23.5L15,31L15,34Z" fill="#FFFFFF" fill-opacity="1"/></g></g></g></svg>