<svg xmlns="http://www.w3.org/2000/svg" xmlns:xlink="http://www.w3.org/1999/xlink" fill="none" version="1.1" width="18.000001907348633" height="18" viewBox="0 0 18.000001907348633 18"><defs><clipPath id="master_svg0_207_6634"><rect x="0" y="0" width="18.000001907348633" height="18" rx="0"/></clipPath></defs><g style="opacity:0.6000000238418579;" clip-path="url(#master_svg0_207_6634)"><g><path d="M14.1569,3.84315Q11.8137,1.5,8.5,1.5Q5.18629,1.5,2.84315,3.84315Q0.5,6.18629,0.5,9.5Q0.49999899999999997,12.8137,2.84315,15.1569Q5.18629,17.5,8.5,17.5Q11.8137,17.5,14.1569,15.1569Q16.5,12.8137,16.5,9.5Q16.5,6.18629,14.1569,3.84315ZM3.55025,4.55025Q5.60051,2.499999,8.5,2.5Q11.3995,2.5,13.4497,4.55025Q15.5,6.6005,15.5,9.5Q15.5,12.3995,13.4497,14.4497Q11.3995,16.5,8.5,16.5Q5.60051,16.5,3.55025,14.4497Q1.5,12.3995,1.5,9.5Q1.5,6.60051,3.55025,4.55025Z" fill-rule="evenodd" fill="#FFFFFF" fill-opacity="1"/></g><g><path d="M1,9.5L16,9.5Q16.0492,9.5,16.0975,9.490393Q16.1458,9.480785000000001,16.1913,9.46194Q16.236800000000002,9.443094,16.2778,9.415735Q16.3187,9.388375,16.3536,9.353553Q16.3884,9.318731,16.4157,9.277785Q16.4431,9.236839,16.4619,9.191342Q16.480800000000002,9.145845,16.4904,9.0975451Q16.5,9.0492457,16.5,9Q16.5,8.9507543,16.4904,8.9024549Q16.480800000000002,8.854155,16.4619,8.808658Q16.4431,8.763161,16.4157,8.722215Q16.3884,8.681269,16.3536,8.646447Q16.3187,8.611625,16.2778,8.584265Q16.236800000000002,8.556906,16.1913,8.53806Q16.1458,8.519214999999999,16.0975,8.509607Q16.0492,8.5,16,8.5L1,8.5Q0.9507543,8.5,0.9024549,8.509607Q0.854155,8.519214999999999,0.808658,8.53806Q0.763161,8.556906,0.722215,8.584265Q0.681269,8.611625,0.646447,8.646447Q0.611625,8.681269,0.584265,8.722215Q0.556906,8.763161,0.53806,8.808658Q0.519215,8.854155,0.5096069999999999,8.9024549Q0.5,8.9507543,0.5,9Q0.5,9.0492457,0.5096069999999999,9.0975451Q0.519215,9.145845,0.53806,9.191342Q0.556906,9.236839,0.584265,9.277785Q0.611625,9.318731,0.646447,9.353553Q0.681269,9.388375,0.722215,9.415735Q0.763161,9.443094,0.808658,9.46194Q0.854155,9.480785000000001,0.9024549,9.490393Q0.9507543,9.5,1,9.5Z" fill-rule="evenodd" fill="#FFFFFF" fill-opacity="1"/></g><g><path d="M9.36947,1.663116Q10.837530000000001,3.27043,11.646,5.2916Q12.454550000000001,7.31298,12.49989,9.48959Q12.50011,9.5,12.49989,9.51042Q12.454550000000001,11.68702,11.646,13.7084Q10.83745,15.7298,9.36917,17.3372Q9.35392,17.3539,9.337209999999999,17.3692Q9.30085,17.4024,9.25871,17.4279Q9.21657,17.4533,9.17027,17.470100000000002Q9.12396,17.4869,9.07528,17.494300000000003Q9.0266,17.5017,8.9774,17.499499999999998Q8.9282,17.4973,8.88039,17.485500000000002Q8.83257,17.4737,8.78797,17.4528Q8.74338,17.4319,8.703710000000001,17.4028Q8.66404,17.3736,8.63083,17.3372Q7.1625499999999995,15.7298,6.354002,13.7084Q5.545453,11.68703,5.500109,9.51042Q5.499892,9.5,5.500108,9.48959Q5.545453,7.31298,6.354003,5.2916Q7.1625499999999995,3.2702299999999997,8.63083,1.662788Q8.646090000000001,1.646085,8.662790000000001,1.630827Q8.73622,1.563752,8.82973,1.529884Q8.92325,1.496016,9.0226,1.500511Q9.201789999999999,1.508618,9.33496,1.6287829999999999Q9.33609,1.629802,9.337209999999999,1.630827Q9.35392,1.646085,9.36917,1.662789L9.36947,1.663116ZM6.500113,9.5Q6.583233,5.66344,9,2.760349Q11.41677,5.66345,11.49989,9.50001Q11.41677,13.3366,9,16.2397Q6.583232,13.3366,6.500113,9.5Z" fill-rule="evenodd" fill="#FFFFFF" fill-opacity="1"/></g></g></svg>