<svg xmlns="http://www.w3.org/2000/svg" xmlns:xlink="http://www.w3.org/1999/xlink" fill="none" version="1.1" width="24" height="24" viewBox="0 0 24 24"><defs><clipPath id="master_svg0_58_5478"><rect x="0" y="0" width="24" height="24" rx="0"/></clipPath><linearGradient x1="0.5" y1="0" x2="0.5" y2="1" id="master_svg1_58_6676"><stop offset="0%" stop-color="#75DC94" stop-opacity="1"/><stop offset="100%" stop-color="#89D5DE" stop-opacity="1"/></linearGradient><linearGradient x1="0.5" y1="0" x2="0.5" y2="1" id="master_svg2_58_5043"><stop offset="0%" stop-color="#FFFFFF" stop-opacity="1"/><stop offset="100%" stop-color="#FFFFFF" stop-opacity="1"/></linearGradient><mask id="master_svg3_58_5488"><g><ellipse cx="12" cy="12" rx="12" ry="12" fill="url(#master_svg2_58_5043)" fill-opacity="1"/></g></mask><filter id="master_svg4_58_5481" filterUnits="objectBoundingBox" color-interpolation-filters="sRGB" x="-4" y="-3" width="24" height="25"><feFlood flood-opacity="0" result="BackgroundImageFix"/><feColorMatrix in="SourceAlpha" type="matrix" values="0 0 0 0 0 0 0 0 0 0 0 0 0 0 0 0 0 0 127 0"/><feOffset dy="1" dx="0"/><feGaussianBlur stdDeviation="1"/><feColorMatrix type="matrix" values="0 0 0 0 0.08865360170602798 0 0 0 0 0.6071428656578064 0 0 0 0 0.45855143666267395 0 0 0 1 0"/><feBlend mode="normal" in2="BackgroundImageFix" result="effect1_dropShadow"/><feBlend mode="normal" in="SourceGraphic" in2="effect1_dropShadow" result="shape"/></filter><linearGradient x1="0.5" y1="0" x2="0.5" y2="1" id="master_svg5_58_5457"><stop offset="0%" stop-color="#FFFFFF" stop-opacity="1"/><stop offset="100%" stop-color="#FFFFFF" stop-opacity="0"/></linearGradient></defs><g clip-path="url(#master_svg0_58_5478)"><g><ellipse cx="12" cy="12" rx="12" ry="12" fill="url(#master_svg1_58_6676)" fill-opacity="1"/></g><g mask="url(#master_svg3_58_5488)"></g><g transform="matrix(1,0,-0.2079116851091385,0.978147566318512,0.6237350553274155,0.06555730104446411)" filter="url(#master_svg4_58_5481)"><path d="M9.11448486328125,16.732L11.250484863281251,16.732L11.250484863281251,13.576L13.95048486328125,7.792L11.70648486328125,7.792L10.96248486328125,9.783999999999999C10.71048486328125,10.456,10.47048486328125,11.08,10.218484863281251,11.776L10.17048486328125,11.776C9.91848486328125,11.08,9.69048486328125,10.456,9.45048486328125,9.783999999999999L8.70648486328125,7.792L6.42648486328125,7.792L9.11448486328125,13.576L9.11448486328125,16.732ZM14.14248486328125,16.732L16.29048486328125,16.732L16.29048486328125,14.392L17.26248486328125,13.072L19.37448486328125,16.732L21.71448486328125,16.732L18.51048486328125,11.38L21.210484863281252,7.792L18.858484863281248,7.792L16.32648486328125,11.332L16.29048486328125,11.332L16.29048486328125,7.792L14.14248486328125,7.792L14.14248486328125,16.732Z" fill="#FFFFFF" fill-opacity="1"/></g><g style="opacity:0.20000000298023224;"><ellipse cx="2" cy="16" rx="12" ry="12" fill="url(#master_svg5_58_5457)" fill-opacity="1"/></g></g></svg>
