<svg xmlns="http://www.w3.org/2000/svg" xmlns:xlink="http://www.w3.org/1999/xlink" fill="none" version="1.1" width="18" height="18" viewBox="0 0 18 18"><defs><clipPath id="master_svg0_207_7120"><rect x="0" y="0" width="18" height="18" rx="0"/></clipPath></defs><g style="opacity:0.6000000238418579;" clip-path="url(#master_svg0_207_7120)"><g><path d="M1.5870716,3.0870716Q1,3.674143,1,4.5L1,13.5Q1,14.3259,1.5870716,14.9129Q2.174142,15.5,3,15.5L15,15.5Q15.8259,15.5,16.4129,14.9129Q17,14.3259,17,13.5L17,4.5Q17,3.674142,16.4129,3.0870717Q15.8259,2.5,15,2.5L3,2.5Q2.174143,2.5,1.5870716,3.0870716ZM2,13.5L2,4.5Q2,4.08836,2.294178,3.794178Q2.5883599999999998,3.5,3,3.5L15,3.5Q15.4116,3.5,15.7058,3.794178Q16,4.08836,16,4.5L16,13.5Q16,13.9116,15.7058,14.2058Q15.4116,14.5,15,14.5L3,14.5Q2.5883599999999998,14.5,2.294178,14.2058Q2,13.9116,2,13.5Z" fill-rule="evenodd" fill="#FFFFFF" fill-opacity="1"/></g><g><path d="M9,9.139669999999999L1.786731,4.090384Q1.657611,4,1.50000000925055,4Q1.4821897,4,1.4644245,4.001267Q1.351738,4.009305,1.253454,4.065012Q1.15517,4.120718,1.090384,4.213269Q1,4.342389,1,4.5Q1,4.5178103,1.001267,4.5355755Q1.009305,4.648262,1.065012,4.746546Q1.120718,4.84483,1.213269,4.909616L8.71327,10.15962Q8.776299999999999,10.20374,8.84968,10.22687Q8.92306,10.25,9,10.25Q9.07694,10.25,9.15032,10.22687Q9.223700000000001,10.20374,9.28673,10.15962L16.7863,4.90989L16.7867,4.909616Q16.887,4.839443,16.9435,4.730905Q17,4.622368,17,4.5Q17,4.49207457,16.9997,4.4841531Q16.994999999999997,4.335286,16.909599999999998,4.213269Q16.852600000000002,4.131791,16.768700000000003,4.078341Q16.6848,4.024892,16.5869,4.007608Q16.543799999999997,4,16.5,4L16.490099999999998,4.000098Q16.338,4.003106,16.2133,4.090384L16.212899999999998,4.090658L9,9.139669999999999Z" fill-rule="evenodd" fill="#FFFFFF" fill-opacity="1"/></g></g></svg>