<svg xmlns="http://www.w3.org/2000/svg" xmlns:xlink="http://www.w3.org/1999/xlink" fill="none" version="1.1" width="33.33000183105469" height="33.33000183105469" viewBox="0 0 33.33000183105469 33.33000183105469"><defs><clipPath id="master_svg0_207_6963"><rect x="0" y="0" width="33.33000183105469" height="33.33000183105469" rx="0"/></clipPath><linearGradient x1="0.5" y1="0" x2="0.5" y2="1" id="master_svg1_23_0851"><stop offset="0%" stop-color="#606AFF" stop-opacity="1"/><stop offset="100%" stop-color="#212DD8" stop-opacity="1"/></linearGradient></defs><g clip-path="url(#master_svg0_207_6963)"><g><path d="M16.6390390625,29.6103390625L11.6476990625,20.8978390625Q6.2436690625,23.0735390625,4.3688390625,24.3826390625Q2.4938270625,25.6918390625,1.6650390625,29.6650390625L31.6650390625,29.6650390625Q31.1155390625,25.9233390625,28.9095390625,24.3826390625Q27.0344390625,23.0735390625,21.6302390625,20.8978390625L16.6390390625,29.6103390625ZM16.6390390625,22.6403390625L14.9751390625,24.3826390625L15.8071390625,26.1252390625L13.3114390625,29.6103390625L19.9665390625,29.6103390625L17.4709390625,26.1252390625L18.3027390625,24.3826390625L16.6390390625,22.6403390625ZM16.8175390625,2.6650390625C24.1449390625,2.6650390625,24.1577390625,8.483759062499999,24.1577390625,11.7554990625C24.1577390625,15.0272390625,21.2218390625,21.1066390625,16.8175390625,21.1136390625C12.4135390625,21.1211390625,9.4774090625,15.0272390625,9.4774090625,11.7555090625C9.4774090625,8.483759062499999,9.4903190625,2.6650390625,16.8175390625,2.6650390625Z" fill="url(#master_svg1_23_0851)" fill-opacity="1"/></g></g></svg>